%TF.GenerationSoftware,KiCad,Pcbnew,9.0.7*%
%TF.CreationDate,2026-02-10T19:45:00+05:30*%
%TF.ProjectId,ALU,414c552e-6b69-4636-9164-5f7063625858,rev?*%
%TF.SameCoordinates,Original*%
%TF.FileFunction,Legend,Top*%
%TF.FilePolarity,Positive*%
%FSLAX46Y46*%
G04 Gerber Fmt 4.6, Leading zero omitted, Abs format (unit mm)*
G04 Created by KiCad (PCBNEW 9.0.7) date 2026-02-10 19:45:00*
%MOMM*%
%LPD*%
G01*
G04 APERTURE LIST*
%ADD10C,0.300000*%
%ADD11C,0.150000*%
%ADD12C,0.120000*%
G04 APERTURE END LIST*
D10*
X107004510Y-119605450D02*
X107504510Y-119605450D01*
X107718796Y-120391164D02*
X107004510Y-120391164D01*
X107004510Y-120391164D02*
X107004510Y-118891164D01*
X107004510Y-118891164D02*
X107718796Y-118891164D01*
X109218796Y-120248307D02*
X109147368Y-120319736D01*
X109147368Y-120319736D02*
X108933082Y-120391164D01*
X108933082Y-120391164D02*
X108790225Y-120391164D01*
X108790225Y-120391164D02*
X108575939Y-120319736D01*
X108575939Y-120319736D02*
X108433082Y-120176878D01*
X108433082Y-120176878D02*
X108361653Y-120034021D01*
X108361653Y-120034021D02*
X108290225Y-119748307D01*
X108290225Y-119748307D02*
X108290225Y-119534021D01*
X108290225Y-119534021D02*
X108361653Y-119248307D01*
X108361653Y-119248307D02*
X108433082Y-119105450D01*
X108433082Y-119105450D02*
X108575939Y-118962593D01*
X108575939Y-118962593D02*
X108790225Y-118891164D01*
X108790225Y-118891164D02*
X108933082Y-118891164D01*
X108933082Y-118891164D02*
X109147368Y-118962593D01*
X109147368Y-118962593D02*
X109218796Y-119034021D01*
X109790225Y-119962593D02*
X110504511Y-119962593D01*
X109647368Y-120391164D02*
X110147368Y-118891164D01*
X110147368Y-118891164D02*
X110647368Y-120391164D01*
X111433082Y-118891164D02*
X111575939Y-118891164D01*
X111575939Y-118891164D02*
X111718796Y-118962593D01*
X111718796Y-118962593D02*
X111790225Y-119034021D01*
X111790225Y-119034021D02*
X111861653Y-119176878D01*
X111861653Y-119176878D02*
X111933082Y-119462593D01*
X111933082Y-119462593D02*
X111933082Y-119819736D01*
X111933082Y-119819736D02*
X111861653Y-120105450D01*
X111861653Y-120105450D02*
X111790225Y-120248307D01*
X111790225Y-120248307D02*
X111718796Y-120319736D01*
X111718796Y-120319736D02*
X111575939Y-120391164D01*
X111575939Y-120391164D02*
X111433082Y-120391164D01*
X111433082Y-120391164D02*
X111290225Y-120319736D01*
X111290225Y-120319736D02*
X111218796Y-120248307D01*
X111218796Y-120248307D02*
X111147367Y-120105450D01*
X111147367Y-120105450D02*
X111075939Y-119819736D01*
X111075939Y-119819736D02*
X111075939Y-119462593D01*
X111075939Y-119462593D02*
X111147367Y-119176878D01*
X111147367Y-119176878D02*
X111218796Y-119034021D01*
X111218796Y-119034021D02*
X111290225Y-118962593D01*
X111290225Y-118962593D02*
X111433082Y-118891164D01*
X113218796Y-119391164D02*
X113218796Y-120391164D01*
X112861653Y-118819736D02*
X112504510Y-119891164D01*
X112504510Y-119891164D02*
X113433081Y-119891164D01*
X107861653Y-122663223D02*
X107790225Y-122734652D01*
X107790225Y-122734652D02*
X107575939Y-122806080D01*
X107575939Y-122806080D02*
X107433082Y-122806080D01*
X107433082Y-122806080D02*
X107218796Y-122734652D01*
X107218796Y-122734652D02*
X107075939Y-122591794D01*
X107075939Y-122591794D02*
X107004510Y-122448937D01*
X107004510Y-122448937D02*
X106933082Y-122163223D01*
X106933082Y-122163223D02*
X106933082Y-121948937D01*
X106933082Y-121948937D02*
X107004510Y-121663223D01*
X107004510Y-121663223D02*
X107075939Y-121520366D01*
X107075939Y-121520366D02*
X107218796Y-121377509D01*
X107218796Y-121377509D02*
X107433082Y-121306080D01*
X107433082Y-121306080D02*
X107575939Y-121306080D01*
X107575939Y-121306080D02*
X107790225Y-121377509D01*
X107790225Y-121377509D02*
X107861653Y-121448937D01*
X109004510Y-122020366D02*
X109218796Y-122091794D01*
X109218796Y-122091794D02*
X109290225Y-122163223D01*
X109290225Y-122163223D02*
X109361653Y-122306080D01*
X109361653Y-122306080D02*
X109361653Y-122520366D01*
X109361653Y-122520366D02*
X109290225Y-122663223D01*
X109290225Y-122663223D02*
X109218796Y-122734652D01*
X109218796Y-122734652D02*
X109075939Y-122806080D01*
X109075939Y-122806080D02*
X108504510Y-122806080D01*
X108504510Y-122806080D02*
X108504510Y-121306080D01*
X108504510Y-121306080D02*
X109004510Y-121306080D01*
X109004510Y-121306080D02*
X109147368Y-121377509D01*
X109147368Y-121377509D02*
X109218796Y-121448937D01*
X109218796Y-121448937D02*
X109290225Y-121591794D01*
X109290225Y-121591794D02*
X109290225Y-121734652D01*
X109290225Y-121734652D02*
X109218796Y-121877509D01*
X109218796Y-121877509D02*
X109147368Y-121948937D01*
X109147368Y-121948937D02*
X109004510Y-122020366D01*
X109004510Y-122020366D02*
X108504510Y-122020366D01*
X110004510Y-122663223D02*
X110075939Y-122734652D01*
X110075939Y-122734652D02*
X110004510Y-122806080D01*
X110004510Y-122806080D02*
X109933082Y-122734652D01*
X109933082Y-122734652D02*
X110004510Y-122663223D01*
X110004510Y-122663223D02*
X110004510Y-122806080D01*
X110718796Y-122020366D02*
X111218796Y-122020366D01*
X111433082Y-122806080D02*
X110718796Y-122806080D01*
X110718796Y-122806080D02*
X110718796Y-121306080D01*
X110718796Y-121306080D02*
X111433082Y-121306080D01*
X112075939Y-122806080D02*
X112075939Y-121306080D01*
X112075939Y-121306080D02*
X112933082Y-122806080D01*
X112933082Y-122806080D02*
X112933082Y-121306080D01*
X113647368Y-122663223D02*
X113718797Y-122734652D01*
X113718797Y-122734652D02*
X113647368Y-122806080D01*
X113647368Y-122806080D02*
X113575940Y-122734652D01*
X113575940Y-122734652D02*
X113647368Y-122663223D01*
X113647368Y-122663223D02*
X113647368Y-122806080D01*
X114361654Y-121306080D02*
X114361654Y-122520366D01*
X114361654Y-122520366D02*
X114433083Y-122663223D01*
X114433083Y-122663223D02*
X114504512Y-122734652D01*
X114504512Y-122734652D02*
X114647369Y-122806080D01*
X114647369Y-122806080D02*
X114933083Y-122806080D01*
X114933083Y-122806080D02*
X115075940Y-122734652D01*
X115075940Y-122734652D02*
X115147369Y-122663223D01*
X115147369Y-122663223D02*
X115218797Y-122520366D01*
X115218797Y-122520366D02*
X115218797Y-121306080D01*
X116575941Y-121806080D02*
X116575941Y-122806080D01*
X116218798Y-121234652D02*
X115861655Y-122306080D01*
X115861655Y-122306080D02*
X116790226Y-122306080D01*
X117361654Y-122020366D02*
X117861654Y-122020366D01*
X118075940Y-122806080D02*
X117361654Y-122806080D01*
X117361654Y-122806080D02*
X117361654Y-121306080D01*
X117361654Y-121306080D02*
X118075940Y-121306080D01*
X119575940Y-122663223D02*
X119504512Y-122734652D01*
X119504512Y-122734652D02*
X119290226Y-122806080D01*
X119290226Y-122806080D02*
X119147369Y-122806080D01*
X119147369Y-122806080D02*
X118933083Y-122734652D01*
X118933083Y-122734652D02*
X118790226Y-122591794D01*
X118790226Y-122591794D02*
X118718797Y-122448937D01*
X118718797Y-122448937D02*
X118647369Y-122163223D01*
X118647369Y-122163223D02*
X118647369Y-121948937D01*
X118647369Y-121948937D02*
X118718797Y-121663223D01*
X118718797Y-121663223D02*
X118790226Y-121520366D01*
X118790226Y-121520366D02*
X118933083Y-121377509D01*
X118933083Y-121377509D02*
X119147369Y-121306080D01*
X119147369Y-121306080D02*
X119290226Y-121306080D01*
X119290226Y-121306080D02*
X119504512Y-121377509D01*
X119504512Y-121377509D02*
X119575940Y-121448937D01*
X120218797Y-122020366D02*
X120718797Y-122020366D01*
X120933083Y-122806080D02*
X120218797Y-122806080D01*
X120218797Y-122806080D02*
X120218797Y-121306080D01*
X120218797Y-121306080D02*
X120933083Y-121306080D01*
X121504512Y-121448937D02*
X121575940Y-121377509D01*
X121575940Y-121377509D02*
X121718798Y-121306080D01*
X121718798Y-121306080D02*
X122075940Y-121306080D01*
X122075940Y-121306080D02*
X122218798Y-121377509D01*
X122218798Y-121377509D02*
X122290226Y-121448937D01*
X122290226Y-121448937D02*
X122361655Y-121591794D01*
X122361655Y-121591794D02*
X122361655Y-121734652D01*
X122361655Y-121734652D02*
X122290226Y-121948937D01*
X122290226Y-121948937D02*
X121433083Y-122806080D01*
X121433083Y-122806080D02*
X122361655Y-122806080D01*
X122861654Y-121306080D02*
X123790226Y-121306080D01*
X123790226Y-121306080D02*
X123290226Y-121877509D01*
X123290226Y-121877509D02*
X123504511Y-121877509D01*
X123504511Y-121877509D02*
X123647369Y-121948937D01*
X123647369Y-121948937D02*
X123718797Y-122020366D01*
X123718797Y-122020366D02*
X123790226Y-122163223D01*
X123790226Y-122163223D02*
X123790226Y-122520366D01*
X123790226Y-122520366D02*
X123718797Y-122663223D01*
X123718797Y-122663223D02*
X123647369Y-122734652D01*
X123647369Y-122734652D02*
X123504511Y-122806080D01*
X123504511Y-122806080D02*
X123075940Y-122806080D01*
X123075940Y-122806080D02*
X122933083Y-122734652D01*
X122933083Y-122734652D02*
X122861654Y-122663223D01*
X124718797Y-121306080D02*
X124861654Y-121306080D01*
X124861654Y-121306080D02*
X125004511Y-121377509D01*
X125004511Y-121377509D02*
X125075940Y-121448937D01*
X125075940Y-121448937D02*
X125147368Y-121591794D01*
X125147368Y-121591794D02*
X125218797Y-121877509D01*
X125218797Y-121877509D02*
X125218797Y-122234652D01*
X125218797Y-122234652D02*
X125147368Y-122520366D01*
X125147368Y-122520366D02*
X125075940Y-122663223D01*
X125075940Y-122663223D02*
X125004511Y-122734652D01*
X125004511Y-122734652D02*
X124861654Y-122806080D01*
X124861654Y-122806080D02*
X124718797Y-122806080D01*
X124718797Y-122806080D02*
X124575940Y-122734652D01*
X124575940Y-122734652D02*
X124504511Y-122663223D01*
X124504511Y-122663223D02*
X124433082Y-122520366D01*
X124433082Y-122520366D02*
X124361654Y-122234652D01*
X124361654Y-122234652D02*
X124361654Y-121877509D01*
X124361654Y-121877509D02*
X124433082Y-121591794D01*
X124433082Y-121591794D02*
X124504511Y-121448937D01*
X124504511Y-121448937D02*
X124575940Y-121377509D01*
X124575940Y-121377509D02*
X124718797Y-121306080D01*
X126147368Y-121306080D02*
X126290225Y-121306080D01*
X126290225Y-121306080D02*
X126433082Y-121377509D01*
X126433082Y-121377509D02*
X126504511Y-121448937D01*
X126504511Y-121448937D02*
X126575939Y-121591794D01*
X126575939Y-121591794D02*
X126647368Y-121877509D01*
X126647368Y-121877509D02*
X126647368Y-122234652D01*
X126647368Y-122234652D02*
X126575939Y-122520366D01*
X126575939Y-122520366D02*
X126504511Y-122663223D01*
X126504511Y-122663223D02*
X126433082Y-122734652D01*
X126433082Y-122734652D02*
X126290225Y-122806080D01*
X126290225Y-122806080D02*
X126147368Y-122806080D01*
X126147368Y-122806080D02*
X126004511Y-122734652D01*
X126004511Y-122734652D02*
X125933082Y-122663223D01*
X125933082Y-122663223D02*
X125861653Y-122520366D01*
X125861653Y-122520366D02*
X125790225Y-122234652D01*
X125790225Y-122234652D02*
X125790225Y-121877509D01*
X125790225Y-121877509D02*
X125861653Y-121591794D01*
X125861653Y-121591794D02*
X125933082Y-121448937D01*
X125933082Y-121448937D02*
X126004511Y-121377509D01*
X126004511Y-121377509D02*
X126147368Y-121306080D01*
X128004510Y-121306080D02*
X127290224Y-121306080D01*
X127290224Y-121306080D02*
X127218796Y-122020366D01*
X127218796Y-122020366D02*
X127290224Y-121948937D01*
X127290224Y-121948937D02*
X127433082Y-121877509D01*
X127433082Y-121877509D02*
X127790224Y-121877509D01*
X127790224Y-121877509D02*
X127933082Y-121948937D01*
X127933082Y-121948937D02*
X128004510Y-122020366D01*
X128004510Y-122020366D02*
X128075939Y-122163223D01*
X128075939Y-122163223D02*
X128075939Y-122520366D01*
X128075939Y-122520366D02*
X128004510Y-122663223D01*
X128004510Y-122663223D02*
X127933082Y-122734652D01*
X127933082Y-122734652D02*
X127790224Y-122806080D01*
X127790224Y-122806080D02*
X127433082Y-122806080D01*
X127433082Y-122806080D02*
X127290224Y-122734652D01*
X127290224Y-122734652D02*
X127218796Y-122663223D01*
X107861653Y-125078139D02*
X107790225Y-125149568D01*
X107790225Y-125149568D02*
X107575939Y-125220996D01*
X107575939Y-125220996D02*
X107433082Y-125220996D01*
X107433082Y-125220996D02*
X107218796Y-125149568D01*
X107218796Y-125149568D02*
X107075939Y-125006710D01*
X107075939Y-125006710D02*
X107004510Y-124863853D01*
X107004510Y-124863853D02*
X106933082Y-124578139D01*
X106933082Y-124578139D02*
X106933082Y-124363853D01*
X106933082Y-124363853D02*
X107004510Y-124078139D01*
X107004510Y-124078139D02*
X107075939Y-123935282D01*
X107075939Y-123935282D02*
X107218796Y-123792425D01*
X107218796Y-123792425D02*
X107433082Y-123720996D01*
X107433082Y-123720996D02*
X107575939Y-123720996D01*
X107575939Y-123720996D02*
X107790225Y-123792425D01*
X107790225Y-123792425D02*
X107861653Y-123863853D01*
X109004510Y-124435282D02*
X109218796Y-124506710D01*
X109218796Y-124506710D02*
X109290225Y-124578139D01*
X109290225Y-124578139D02*
X109361653Y-124720996D01*
X109361653Y-124720996D02*
X109361653Y-124935282D01*
X109361653Y-124935282D02*
X109290225Y-125078139D01*
X109290225Y-125078139D02*
X109218796Y-125149568D01*
X109218796Y-125149568D02*
X109075939Y-125220996D01*
X109075939Y-125220996D02*
X108504510Y-125220996D01*
X108504510Y-125220996D02*
X108504510Y-123720996D01*
X108504510Y-123720996D02*
X109004510Y-123720996D01*
X109004510Y-123720996D02*
X109147368Y-123792425D01*
X109147368Y-123792425D02*
X109218796Y-123863853D01*
X109218796Y-123863853D02*
X109290225Y-124006710D01*
X109290225Y-124006710D02*
X109290225Y-124149568D01*
X109290225Y-124149568D02*
X109218796Y-124292425D01*
X109218796Y-124292425D02*
X109147368Y-124363853D01*
X109147368Y-124363853D02*
X109004510Y-124435282D01*
X109004510Y-124435282D02*
X108504510Y-124435282D01*
X110004510Y-125078139D02*
X110075939Y-125149568D01*
X110075939Y-125149568D02*
X110004510Y-125220996D01*
X110004510Y-125220996D02*
X109933082Y-125149568D01*
X109933082Y-125149568D02*
X110004510Y-125078139D01*
X110004510Y-125078139D02*
X110004510Y-125220996D01*
X110718796Y-124435282D02*
X111218796Y-124435282D01*
X111433082Y-125220996D02*
X110718796Y-125220996D01*
X110718796Y-125220996D02*
X110718796Y-123720996D01*
X110718796Y-123720996D02*
X111433082Y-123720996D01*
X112075939Y-125220996D02*
X112075939Y-123720996D01*
X112075939Y-123720996D02*
X112933082Y-125220996D01*
X112933082Y-125220996D02*
X112933082Y-123720996D01*
X113647368Y-125078139D02*
X113718797Y-125149568D01*
X113718797Y-125149568D02*
X113647368Y-125220996D01*
X113647368Y-125220996D02*
X113575940Y-125149568D01*
X113575940Y-125149568D02*
X113647368Y-125078139D01*
X113647368Y-125078139D02*
X113647368Y-125220996D01*
X114361654Y-123720996D02*
X114361654Y-124935282D01*
X114361654Y-124935282D02*
X114433083Y-125078139D01*
X114433083Y-125078139D02*
X114504512Y-125149568D01*
X114504512Y-125149568D02*
X114647369Y-125220996D01*
X114647369Y-125220996D02*
X114933083Y-125220996D01*
X114933083Y-125220996D02*
X115075940Y-125149568D01*
X115075940Y-125149568D02*
X115147369Y-125078139D01*
X115147369Y-125078139D02*
X115218797Y-124935282D01*
X115218797Y-124935282D02*
X115218797Y-123720996D01*
X116575941Y-124220996D02*
X116575941Y-125220996D01*
X116218798Y-123649568D02*
X115861655Y-124720996D01*
X115861655Y-124720996D02*
X116790226Y-124720996D01*
X117361654Y-124435282D02*
X117861654Y-124435282D01*
X118075940Y-125220996D02*
X117361654Y-125220996D01*
X117361654Y-125220996D02*
X117361654Y-123720996D01*
X117361654Y-123720996D02*
X118075940Y-123720996D01*
X119575940Y-125078139D02*
X119504512Y-125149568D01*
X119504512Y-125149568D02*
X119290226Y-125220996D01*
X119290226Y-125220996D02*
X119147369Y-125220996D01*
X119147369Y-125220996D02*
X118933083Y-125149568D01*
X118933083Y-125149568D02*
X118790226Y-125006710D01*
X118790226Y-125006710D02*
X118718797Y-124863853D01*
X118718797Y-124863853D02*
X118647369Y-124578139D01*
X118647369Y-124578139D02*
X118647369Y-124363853D01*
X118647369Y-124363853D02*
X118718797Y-124078139D01*
X118718797Y-124078139D02*
X118790226Y-123935282D01*
X118790226Y-123935282D02*
X118933083Y-123792425D01*
X118933083Y-123792425D02*
X119147369Y-123720996D01*
X119147369Y-123720996D02*
X119290226Y-123720996D01*
X119290226Y-123720996D02*
X119504512Y-123792425D01*
X119504512Y-123792425D02*
X119575940Y-123863853D01*
X120218797Y-124435282D02*
X120718797Y-124435282D01*
X120933083Y-125220996D02*
X120218797Y-125220996D01*
X120218797Y-125220996D02*
X120218797Y-123720996D01*
X120218797Y-123720996D02*
X120933083Y-123720996D01*
X121504512Y-123863853D02*
X121575940Y-123792425D01*
X121575940Y-123792425D02*
X121718798Y-123720996D01*
X121718798Y-123720996D02*
X122075940Y-123720996D01*
X122075940Y-123720996D02*
X122218798Y-123792425D01*
X122218798Y-123792425D02*
X122290226Y-123863853D01*
X122290226Y-123863853D02*
X122361655Y-124006710D01*
X122361655Y-124006710D02*
X122361655Y-124149568D01*
X122361655Y-124149568D02*
X122290226Y-124363853D01*
X122290226Y-124363853D02*
X121433083Y-125220996D01*
X121433083Y-125220996D02*
X122361655Y-125220996D01*
X122861654Y-123720996D02*
X123790226Y-123720996D01*
X123790226Y-123720996D02*
X123290226Y-124292425D01*
X123290226Y-124292425D02*
X123504511Y-124292425D01*
X123504511Y-124292425D02*
X123647369Y-124363853D01*
X123647369Y-124363853D02*
X123718797Y-124435282D01*
X123718797Y-124435282D02*
X123790226Y-124578139D01*
X123790226Y-124578139D02*
X123790226Y-124935282D01*
X123790226Y-124935282D02*
X123718797Y-125078139D01*
X123718797Y-125078139D02*
X123647369Y-125149568D01*
X123647369Y-125149568D02*
X123504511Y-125220996D01*
X123504511Y-125220996D02*
X123075940Y-125220996D01*
X123075940Y-125220996D02*
X122933083Y-125149568D01*
X122933083Y-125149568D02*
X122861654Y-125078139D01*
X124718797Y-123720996D02*
X124861654Y-123720996D01*
X124861654Y-123720996D02*
X125004511Y-123792425D01*
X125004511Y-123792425D02*
X125075940Y-123863853D01*
X125075940Y-123863853D02*
X125147368Y-124006710D01*
X125147368Y-124006710D02*
X125218797Y-124292425D01*
X125218797Y-124292425D02*
X125218797Y-124649568D01*
X125218797Y-124649568D02*
X125147368Y-124935282D01*
X125147368Y-124935282D02*
X125075940Y-125078139D01*
X125075940Y-125078139D02*
X125004511Y-125149568D01*
X125004511Y-125149568D02*
X124861654Y-125220996D01*
X124861654Y-125220996D02*
X124718797Y-125220996D01*
X124718797Y-125220996D02*
X124575940Y-125149568D01*
X124575940Y-125149568D02*
X124504511Y-125078139D01*
X124504511Y-125078139D02*
X124433082Y-124935282D01*
X124433082Y-124935282D02*
X124361654Y-124649568D01*
X124361654Y-124649568D02*
X124361654Y-124292425D01*
X124361654Y-124292425D02*
X124433082Y-124006710D01*
X124433082Y-124006710D02*
X124504511Y-123863853D01*
X124504511Y-123863853D02*
X124575940Y-123792425D01*
X124575940Y-123792425D02*
X124718797Y-123720996D01*
X126147368Y-123720996D02*
X126290225Y-123720996D01*
X126290225Y-123720996D02*
X126433082Y-123792425D01*
X126433082Y-123792425D02*
X126504511Y-123863853D01*
X126504511Y-123863853D02*
X126575939Y-124006710D01*
X126575939Y-124006710D02*
X126647368Y-124292425D01*
X126647368Y-124292425D02*
X126647368Y-124649568D01*
X126647368Y-124649568D02*
X126575939Y-124935282D01*
X126575939Y-124935282D02*
X126504511Y-125078139D01*
X126504511Y-125078139D02*
X126433082Y-125149568D01*
X126433082Y-125149568D02*
X126290225Y-125220996D01*
X126290225Y-125220996D02*
X126147368Y-125220996D01*
X126147368Y-125220996D02*
X126004511Y-125149568D01*
X126004511Y-125149568D02*
X125933082Y-125078139D01*
X125933082Y-125078139D02*
X125861653Y-124935282D01*
X125861653Y-124935282D02*
X125790225Y-124649568D01*
X125790225Y-124649568D02*
X125790225Y-124292425D01*
X125790225Y-124292425D02*
X125861653Y-124006710D01*
X125861653Y-124006710D02*
X125933082Y-123863853D01*
X125933082Y-123863853D02*
X126004511Y-123792425D01*
X126004511Y-123792425D02*
X126147368Y-123720996D01*
X127147367Y-123720996D02*
X128147367Y-123720996D01*
X128147367Y-123720996D02*
X127504510Y-125220996D01*
X107861653Y-127493055D02*
X107790225Y-127564484D01*
X107790225Y-127564484D02*
X107575939Y-127635912D01*
X107575939Y-127635912D02*
X107433082Y-127635912D01*
X107433082Y-127635912D02*
X107218796Y-127564484D01*
X107218796Y-127564484D02*
X107075939Y-127421626D01*
X107075939Y-127421626D02*
X107004510Y-127278769D01*
X107004510Y-127278769D02*
X106933082Y-126993055D01*
X106933082Y-126993055D02*
X106933082Y-126778769D01*
X106933082Y-126778769D02*
X107004510Y-126493055D01*
X107004510Y-126493055D02*
X107075939Y-126350198D01*
X107075939Y-126350198D02*
X107218796Y-126207341D01*
X107218796Y-126207341D02*
X107433082Y-126135912D01*
X107433082Y-126135912D02*
X107575939Y-126135912D01*
X107575939Y-126135912D02*
X107790225Y-126207341D01*
X107790225Y-126207341D02*
X107861653Y-126278769D01*
X109004510Y-126850198D02*
X109218796Y-126921626D01*
X109218796Y-126921626D02*
X109290225Y-126993055D01*
X109290225Y-126993055D02*
X109361653Y-127135912D01*
X109361653Y-127135912D02*
X109361653Y-127350198D01*
X109361653Y-127350198D02*
X109290225Y-127493055D01*
X109290225Y-127493055D02*
X109218796Y-127564484D01*
X109218796Y-127564484D02*
X109075939Y-127635912D01*
X109075939Y-127635912D02*
X108504510Y-127635912D01*
X108504510Y-127635912D02*
X108504510Y-126135912D01*
X108504510Y-126135912D02*
X109004510Y-126135912D01*
X109004510Y-126135912D02*
X109147368Y-126207341D01*
X109147368Y-126207341D02*
X109218796Y-126278769D01*
X109218796Y-126278769D02*
X109290225Y-126421626D01*
X109290225Y-126421626D02*
X109290225Y-126564484D01*
X109290225Y-126564484D02*
X109218796Y-126707341D01*
X109218796Y-126707341D02*
X109147368Y-126778769D01*
X109147368Y-126778769D02*
X109004510Y-126850198D01*
X109004510Y-126850198D02*
X108504510Y-126850198D01*
X110004510Y-127493055D02*
X110075939Y-127564484D01*
X110075939Y-127564484D02*
X110004510Y-127635912D01*
X110004510Y-127635912D02*
X109933082Y-127564484D01*
X109933082Y-127564484D02*
X110004510Y-127493055D01*
X110004510Y-127493055D02*
X110004510Y-127635912D01*
X110718796Y-126850198D02*
X111218796Y-126850198D01*
X111433082Y-127635912D02*
X110718796Y-127635912D01*
X110718796Y-127635912D02*
X110718796Y-126135912D01*
X110718796Y-126135912D02*
X111433082Y-126135912D01*
X112075939Y-127635912D02*
X112075939Y-126135912D01*
X112075939Y-126135912D02*
X112933082Y-127635912D01*
X112933082Y-127635912D02*
X112933082Y-126135912D01*
X113647368Y-127493055D02*
X113718797Y-127564484D01*
X113718797Y-127564484D02*
X113647368Y-127635912D01*
X113647368Y-127635912D02*
X113575940Y-127564484D01*
X113575940Y-127564484D02*
X113647368Y-127493055D01*
X113647368Y-127493055D02*
X113647368Y-127635912D01*
X114361654Y-126135912D02*
X114361654Y-127350198D01*
X114361654Y-127350198D02*
X114433083Y-127493055D01*
X114433083Y-127493055D02*
X114504512Y-127564484D01*
X114504512Y-127564484D02*
X114647369Y-127635912D01*
X114647369Y-127635912D02*
X114933083Y-127635912D01*
X114933083Y-127635912D02*
X115075940Y-127564484D01*
X115075940Y-127564484D02*
X115147369Y-127493055D01*
X115147369Y-127493055D02*
X115218797Y-127350198D01*
X115218797Y-127350198D02*
X115218797Y-126135912D01*
X116575941Y-126635912D02*
X116575941Y-127635912D01*
X116218798Y-126064484D02*
X115861655Y-127135912D01*
X115861655Y-127135912D02*
X116790226Y-127135912D01*
X117361654Y-126850198D02*
X117861654Y-126850198D01*
X118075940Y-127635912D02*
X117361654Y-127635912D01*
X117361654Y-127635912D02*
X117361654Y-126135912D01*
X117361654Y-126135912D02*
X118075940Y-126135912D01*
X119575940Y-127493055D02*
X119504512Y-127564484D01*
X119504512Y-127564484D02*
X119290226Y-127635912D01*
X119290226Y-127635912D02*
X119147369Y-127635912D01*
X119147369Y-127635912D02*
X118933083Y-127564484D01*
X118933083Y-127564484D02*
X118790226Y-127421626D01*
X118790226Y-127421626D02*
X118718797Y-127278769D01*
X118718797Y-127278769D02*
X118647369Y-126993055D01*
X118647369Y-126993055D02*
X118647369Y-126778769D01*
X118647369Y-126778769D02*
X118718797Y-126493055D01*
X118718797Y-126493055D02*
X118790226Y-126350198D01*
X118790226Y-126350198D02*
X118933083Y-126207341D01*
X118933083Y-126207341D02*
X119147369Y-126135912D01*
X119147369Y-126135912D02*
X119290226Y-126135912D01*
X119290226Y-126135912D02*
X119504512Y-126207341D01*
X119504512Y-126207341D02*
X119575940Y-126278769D01*
X120218797Y-126850198D02*
X120718797Y-126850198D01*
X120933083Y-127635912D02*
X120218797Y-127635912D01*
X120218797Y-127635912D02*
X120218797Y-126135912D01*
X120218797Y-126135912D02*
X120933083Y-126135912D01*
X121504512Y-126278769D02*
X121575940Y-126207341D01*
X121575940Y-126207341D02*
X121718798Y-126135912D01*
X121718798Y-126135912D02*
X122075940Y-126135912D01*
X122075940Y-126135912D02*
X122218798Y-126207341D01*
X122218798Y-126207341D02*
X122290226Y-126278769D01*
X122290226Y-126278769D02*
X122361655Y-126421626D01*
X122361655Y-126421626D02*
X122361655Y-126564484D01*
X122361655Y-126564484D02*
X122290226Y-126778769D01*
X122290226Y-126778769D02*
X121433083Y-127635912D01*
X121433083Y-127635912D02*
X122361655Y-127635912D01*
X122861654Y-126135912D02*
X123790226Y-126135912D01*
X123790226Y-126135912D02*
X123290226Y-126707341D01*
X123290226Y-126707341D02*
X123504511Y-126707341D01*
X123504511Y-126707341D02*
X123647369Y-126778769D01*
X123647369Y-126778769D02*
X123718797Y-126850198D01*
X123718797Y-126850198D02*
X123790226Y-126993055D01*
X123790226Y-126993055D02*
X123790226Y-127350198D01*
X123790226Y-127350198D02*
X123718797Y-127493055D01*
X123718797Y-127493055D02*
X123647369Y-127564484D01*
X123647369Y-127564484D02*
X123504511Y-127635912D01*
X123504511Y-127635912D02*
X123075940Y-127635912D01*
X123075940Y-127635912D02*
X122933083Y-127564484D01*
X122933083Y-127564484D02*
X122861654Y-127493055D01*
X124718797Y-126135912D02*
X124861654Y-126135912D01*
X124861654Y-126135912D02*
X125004511Y-126207341D01*
X125004511Y-126207341D02*
X125075940Y-126278769D01*
X125075940Y-126278769D02*
X125147368Y-126421626D01*
X125147368Y-126421626D02*
X125218797Y-126707341D01*
X125218797Y-126707341D02*
X125218797Y-127064484D01*
X125218797Y-127064484D02*
X125147368Y-127350198D01*
X125147368Y-127350198D02*
X125075940Y-127493055D01*
X125075940Y-127493055D02*
X125004511Y-127564484D01*
X125004511Y-127564484D02*
X124861654Y-127635912D01*
X124861654Y-127635912D02*
X124718797Y-127635912D01*
X124718797Y-127635912D02*
X124575940Y-127564484D01*
X124575940Y-127564484D02*
X124504511Y-127493055D01*
X124504511Y-127493055D02*
X124433082Y-127350198D01*
X124433082Y-127350198D02*
X124361654Y-127064484D01*
X124361654Y-127064484D02*
X124361654Y-126707341D01*
X124361654Y-126707341D02*
X124433082Y-126421626D01*
X124433082Y-126421626D02*
X124504511Y-126278769D01*
X124504511Y-126278769D02*
X124575940Y-126207341D01*
X124575940Y-126207341D02*
X124718797Y-126135912D01*
X126647368Y-127635912D02*
X125790225Y-127635912D01*
X126218796Y-127635912D02*
X126218796Y-126135912D01*
X126218796Y-126135912D02*
X126075939Y-126350198D01*
X126075939Y-126350198D02*
X125933082Y-126493055D01*
X125933082Y-126493055D02*
X125790225Y-126564484D01*
X127218796Y-126278769D02*
X127290224Y-126207341D01*
X127290224Y-126207341D02*
X127433082Y-126135912D01*
X127433082Y-126135912D02*
X127790224Y-126135912D01*
X127790224Y-126135912D02*
X127933082Y-126207341D01*
X127933082Y-126207341D02*
X128004510Y-126278769D01*
X128004510Y-126278769D02*
X128075939Y-126421626D01*
X128075939Y-126421626D02*
X128075939Y-126564484D01*
X128075939Y-126564484D02*
X128004510Y-126778769D01*
X128004510Y-126778769D02*
X127147367Y-127635912D01*
X127147367Y-127635912D02*
X128075939Y-127635912D01*
X107861653Y-129907971D02*
X107790225Y-129979400D01*
X107790225Y-129979400D02*
X107575939Y-130050828D01*
X107575939Y-130050828D02*
X107433082Y-130050828D01*
X107433082Y-130050828D02*
X107218796Y-129979400D01*
X107218796Y-129979400D02*
X107075939Y-129836542D01*
X107075939Y-129836542D02*
X107004510Y-129693685D01*
X107004510Y-129693685D02*
X106933082Y-129407971D01*
X106933082Y-129407971D02*
X106933082Y-129193685D01*
X106933082Y-129193685D02*
X107004510Y-128907971D01*
X107004510Y-128907971D02*
X107075939Y-128765114D01*
X107075939Y-128765114D02*
X107218796Y-128622257D01*
X107218796Y-128622257D02*
X107433082Y-128550828D01*
X107433082Y-128550828D02*
X107575939Y-128550828D01*
X107575939Y-128550828D02*
X107790225Y-128622257D01*
X107790225Y-128622257D02*
X107861653Y-128693685D01*
X109004510Y-129265114D02*
X109218796Y-129336542D01*
X109218796Y-129336542D02*
X109290225Y-129407971D01*
X109290225Y-129407971D02*
X109361653Y-129550828D01*
X109361653Y-129550828D02*
X109361653Y-129765114D01*
X109361653Y-129765114D02*
X109290225Y-129907971D01*
X109290225Y-129907971D02*
X109218796Y-129979400D01*
X109218796Y-129979400D02*
X109075939Y-130050828D01*
X109075939Y-130050828D02*
X108504510Y-130050828D01*
X108504510Y-130050828D02*
X108504510Y-128550828D01*
X108504510Y-128550828D02*
X109004510Y-128550828D01*
X109004510Y-128550828D02*
X109147368Y-128622257D01*
X109147368Y-128622257D02*
X109218796Y-128693685D01*
X109218796Y-128693685D02*
X109290225Y-128836542D01*
X109290225Y-128836542D02*
X109290225Y-128979400D01*
X109290225Y-128979400D02*
X109218796Y-129122257D01*
X109218796Y-129122257D02*
X109147368Y-129193685D01*
X109147368Y-129193685D02*
X109004510Y-129265114D01*
X109004510Y-129265114D02*
X108504510Y-129265114D01*
X110004510Y-129907971D02*
X110075939Y-129979400D01*
X110075939Y-129979400D02*
X110004510Y-130050828D01*
X110004510Y-130050828D02*
X109933082Y-129979400D01*
X109933082Y-129979400D02*
X110004510Y-129907971D01*
X110004510Y-129907971D02*
X110004510Y-130050828D01*
X110718796Y-129265114D02*
X111218796Y-129265114D01*
X111433082Y-130050828D02*
X110718796Y-130050828D01*
X110718796Y-130050828D02*
X110718796Y-128550828D01*
X110718796Y-128550828D02*
X111433082Y-128550828D01*
X112075939Y-130050828D02*
X112075939Y-128550828D01*
X112075939Y-128550828D02*
X112933082Y-130050828D01*
X112933082Y-130050828D02*
X112933082Y-128550828D01*
X113647368Y-129907971D02*
X113718797Y-129979400D01*
X113718797Y-129979400D02*
X113647368Y-130050828D01*
X113647368Y-130050828D02*
X113575940Y-129979400D01*
X113575940Y-129979400D02*
X113647368Y-129907971D01*
X113647368Y-129907971D02*
X113647368Y-130050828D01*
X114361654Y-128550828D02*
X114361654Y-129765114D01*
X114361654Y-129765114D02*
X114433083Y-129907971D01*
X114433083Y-129907971D02*
X114504512Y-129979400D01*
X114504512Y-129979400D02*
X114647369Y-130050828D01*
X114647369Y-130050828D02*
X114933083Y-130050828D01*
X114933083Y-130050828D02*
X115075940Y-129979400D01*
X115075940Y-129979400D02*
X115147369Y-129907971D01*
X115147369Y-129907971D02*
X115218797Y-129765114D01*
X115218797Y-129765114D02*
X115218797Y-128550828D01*
X116575941Y-129050828D02*
X116575941Y-130050828D01*
X116218798Y-128479400D02*
X115861655Y-129550828D01*
X115861655Y-129550828D02*
X116790226Y-129550828D01*
X117361654Y-129265114D02*
X117861654Y-129265114D01*
X118075940Y-130050828D02*
X117361654Y-130050828D01*
X117361654Y-130050828D02*
X117361654Y-128550828D01*
X117361654Y-128550828D02*
X118075940Y-128550828D01*
X119575940Y-129907971D02*
X119504512Y-129979400D01*
X119504512Y-129979400D02*
X119290226Y-130050828D01*
X119290226Y-130050828D02*
X119147369Y-130050828D01*
X119147369Y-130050828D02*
X118933083Y-129979400D01*
X118933083Y-129979400D02*
X118790226Y-129836542D01*
X118790226Y-129836542D02*
X118718797Y-129693685D01*
X118718797Y-129693685D02*
X118647369Y-129407971D01*
X118647369Y-129407971D02*
X118647369Y-129193685D01*
X118647369Y-129193685D02*
X118718797Y-128907971D01*
X118718797Y-128907971D02*
X118790226Y-128765114D01*
X118790226Y-128765114D02*
X118933083Y-128622257D01*
X118933083Y-128622257D02*
X119147369Y-128550828D01*
X119147369Y-128550828D02*
X119290226Y-128550828D01*
X119290226Y-128550828D02*
X119504512Y-128622257D01*
X119504512Y-128622257D02*
X119575940Y-128693685D01*
X120218797Y-129265114D02*
X120718797Y-129265114D01*
X120933083Y-130050828D02*
X120218797Y-130050828D01*
X120218797Y-130050828D02*
X120218797Y-128550828D01*
X120218797Y-128550828D02*
X120933083Y-128550828D01*
X121504512Y-128693685D02*
X121575940Y-128622257D01*
X121575940Y-128622257D02*
X121718798Y-128550828D01*
X121718798Y-128550828D02*
X122075940Y-128550828D01*
X122075940Y-128550828D02*
X122218798Y-128622257D01*
X122218798Y-128622257D02*
X122290226Y-128693685D01*
X122290226Y-128693685D02*
X122361655Y-128836542D01*
X122361655Y-128836542D02*
X122361655Y-128979400D01*
X122361655Y-128979400D02*
X122290226Y-129193685D01*
X122290226Y-129193685D02*
X121433083Y-130050828D01*
X121433083Y-130050828D02*
X122361655Y-130050828D01*
X122861654Y-128550828D02*
X123790226Y-128550828D01*
X123790226Y-128550828D02*
X123290226Y-129122257D01*
X123290226Y-129122257D02*
X123504511Y-129122257D01*
X123504511Y-129122257D02*
X123647369Y-129193685D01*
X123647369Y-129193685D02*
X123718797Y-129265114D01*
X123718797Y-129265114D02*
X123790226Y-129407971D01*
X123790226Y-129407971D02*
X123790226Y-129765114D01*
X123790226Y-129765114D02*
X123718797Y-129907971D01*
X123718797Y-129907971D02*
X123647369Y-129979400D01*
X123647369Y-129979400D02*
X123504511Y-130050828D01*
X123504511Y-130050828D02*
X123075940Y-130050828D01*
X123075940Y-130050828D02*
X122933083Y-129979400D01*
X122933083Y-129979400D02*
X122861654Y-129907971D01*
X124718797Y-128550828D02*
X124861654Y-128550828D01*
X124861654Y-128550828D02*
X125004511Y-128622257D01*
X125004511Y-128622257D02*
X125075940Y-128693685D01*
X125075940Y-128693685D02*
X125147368Y-128836542D01*
X125147368Y-128836542D02*
X125218797Y-129122257D01*
X125218797Y-129122257D02*
X125218797Y-129479400D01*
X125218797Y-129479400D02*
X125147368Y-129765114D01*
X125147368Y-129765114D02*
X125075940Y-129907971D01*
X125075940Y-129907971D02*
X125004511Y-129979400D01*
X125004511Y-129979400D02*
X124861654Y-130050828D01*
X124861654Y-130050828D02*
X124718797Y-130050828D01*
X124718797Y-130050828D02*
X124575940Y-129979400D01*
X124575940Y-129979400D02*
X124504511Y-129907971D01*
X124504511Y-129907971D02*
X124433082Y-129765114D01*
X124433082Y-129765114D02*
X124361654Y-129479400D01*
X124361654Y-129479400D02*
X124361654Y-129122257D01*
X124361654Y-129122257D02*
X124433082Y-128836542D01*
X124433082Y-128836542D02*
X124504511Y-128693685D01*
X124504511Y-128693685D02*
X124575940Y-128622257D01*
X124575940Y-128622257D02*
X124718797Y-128550828D01*
X126647368Y-130050828D02*
X125790225Y-130050828D01*
X126218796Y-130050828D02*
X126218796Y-128550828D01*
X126218796Y-128550828D02*
X126075939Y-128765114D01*
X126075939Y-128765114D02*
X125933082Y-128907971D01*
X125933082Y-128907971D02*
X125790225Y-128979400D01*
X127147367Y-128550828D02*
X128147367Y-128550828D01*
X128147367Y-128550828D02*
X127504510Y-130050828D01*
D11*
X170384819Y-52658333D02*
X171099104Y-52658333D01*
X171099104Y-52658333D02*
X171241961Y-52705952D01*
X171241961Y-52705952D02*
X171337200Y-52801190D01*
X171337200Y-52801190D02*
X171384819Y-52944047D01*
X171384819Y-52944047D02*
X171384819Y-53039285D01*
X170813390Y-52039285D02*
X170765771Y-52134523D01*
X170765771Y-52134523D02*
X170718152Y-52182142D01*
X170718152Y-52182142D02*
X170622914Y-52229761D01*
X170622914Y-52229761D02*
X170575295Y-52229761D01*
X170575295Y-52229761D02*
X170480057Y-52182142D01*
X170480057Y-52182142D02*
X170432438Y-52134523D01*
X170432438Y-52134523D02*
X170384819Y-52039285D01*
X170384819Y-52039285D02*
X170384819Y-51848809D01*
X170384819Y-51848809D02*
X170432438Y-51753571D01*
X170432438Y-51753571D02*
X170480057Y-51705952D01*
X170480057Y-51705952D02*
X170575295Y-51658333D01*
X170575295Y-51658333D02*
X170622914Y-51658333D01*
X170622914Y-51658333D02*
X170718152Y-51705952D01*
X170718152Y-51705952D02*
X170765771Y-51753571D01*
X170765771Y-51753571D02*
X170813390Y-51848809D01*
X170813390Y-51848809D02*
X170813390Y-52039285D01*
X170813390Y-52039285D02*
X170861009Y-52134523D01*
X170861009Y-52134523D02*
X170908628Y-52182142D01*
X170908628Y-52182142D02*
X171003866Y-52229761D01*
X171003866Y-52229761D02*
X171194342Y-52229761D01*
X171194342Y-52229761D02*
X171289580Y-52182142D01*
X171289580Y-52182142D02*
X171337200Y-52134523D01*
X171337200Y-52134523D02*
X171384819Y-52039285D01*
X171384819Y-52039285D02*
X171384819Y-51848809D01*
X171384819Y-51848809D02*
X171337200Y-51753571D01*
X171337200Y-51753571D02*
X171289580Y-51705952D01*
X171289580Y-51705952D02*
X171194342Y-51658333D01*
X171194342Y-51658333D02*
X171003866Y-51658333D01*
X171003866Y-51658333D02*
X170908628Y-51705952D01*
X170908628Y-51705952D02*
X170861009Y-51753571D01*
X170861009Y-51753571D02*
X170813390Y-51848809D01*
X215209580Y-91526666D02*
X215257200Y-91574285D01*
X215257200Y-91574285D02*
X215304819Y-91717142D01*
X215304819Y-91717142D02*
X215304819Y-91812380D01*
X215304819Y-91812380D02*
X215257200Y-91955237D01*
X215257200Y-91955237D02*
X215161961Y-92050475D01*
X215161961Y-92050475D02*
X215066723Y-92098094D01*
X215066723Y-92098094D02*
X214876247Y-92145713D01*
X214876247Y-92145713D02*
X214733390Y-92145713D01*
X214733390Y-92145713D02*
X214542914Y-92098094D01*
X214542914Y-92098094D02*
X214447676Y-92050475D01*
X214447676Y-92050475D02*
X214352438Y-91955237D01*
X214352438Y-91955237D02*
X214304819Y-91812380D01*
X214304819Y-91812380D02*
X214304819Y-91717142D01*
X214304819Y-91717142D02*
X214352438Y-91574285D01*
X214352438Y-91574285D02*
X214400057Y-91526666D01*
X215304819Y-91050475D02*
X215304819Y-90859999D01*
X215304819Y-90859999D02*
X215257200Y-90764761D01*
X215257200Y-90764761D02*
X215209580Y-90717142D01*
X215209580Y-90717142D02*
X215066723Y-90621904D01*
X215066723Y-90621904D02*
X214876247Y-90574285D01*
X214876247Y-90574285D02*
X214495295Y-90574285D01*
X214495295Y-90574285D02*
X214400057Y-90621904D01*
X214400057Y-90621904D02*
X214352438Y-90669523D01*
X214352438Y-90669523D02*
X214304819Y-90764761D01*
X214304819Y-90764761D02*
X214304819Y-90955237D01*
X214304819Y-90955237D02*
X214352438Y-91050475D01*
X214352438Y-91050475D02*
X214400057Y-91098094D01*
X214400057Y-91098094D02*
X214495295Y-91145713D01*
X214495295Y-91145713D02*
X214733390Y-91145713D01*
X214733390Y-91145713D02*
X214828628Y-91098094D01*
X214828628Y-91098094D02*
X214876247Y-91050475D01*
X214876247Y-91050475D02*
X214923866Y-90955237D01*
X214923866Y-90955237D02*
X214923866Y-90764761D01*
X214923866Y-90764761D02*
X214876247Y-90669523D01*
X214876247Y-90669523D02*
X214828628Y-90621904D01*
X214828628Y-90621904D02*
X214733390Y-90574285D01*
X175948095Y-119634819D02*
X175948095Y-120444342D01*
X175948095Y-120444342D02*
X175995714Y-120539580D01*
X175995714Y-120539580D02*
X176043333Y-120587200D01*
X176043333Y-120587200D02*
X176138571Y-120634819D01*
X176138571Y-120634819D02*
X176329047Y-120634819D01*
X176329047Y-120634819D02*
X176424285Y-120587200D01*
X176424285Y-120587200D02*
X176471904Y-120539580D01*
X176471904Y-120539580D02*
X176519523Y-120444342D01*
X176519523Y-120444342D02*
X176519523Y-119634819D01*
X177424285Y-119968152D02*
X177424285Y-120634819D01*
X177186190Y-119587200D02*
X176948095Y-120301485D01*
X176948095Y-120301485D02*
X177567142Y-120301485D01*
X161057142Y-84709580D02*
X161009523Y-84757200D01*
X161009523Y-84757200D02*
X160866666Y-84804819D01*
X160866666Y-84804819D02*
X160771428Y-84804819D01*
X160771428Y-84804819D02*
X160628571Y-84757200D01*
X160628571Y-84757200D02*
X160533333Y-84661961D01*
X160533333Y-84661961D02*
X160485714Y-84566723D01*
X160485714Y-84566723D02*
X160438095Y-84376247D01*
X160438095Y-84376247D02*
X160438095Y-84233390D01*
X160438095Y-84233390D02*
X160485714Y-84042914D01*
X160485714Y-84042914D02*
X160533333Y-83947676D01*
X160533333Y-83947676D02*
X160628571Y-83852438D01*
X160628571Y-83852438D02*
X160771428Y-83804819D01*
X160771428Y-83804819D02*
X160866666Y-83804819D01*
X160866666Y-83804819D02*
X161009523Y-83852438D01*
X161009523Y-83852438D02*
X161057142Y-83900057D01*
X162009523Y-84804819D02*
X161438095Y-84804819D01*
X161723809Y-84804819D02*
X161723809Y-83804819D01*
X161723809Y-83804819D02*
X161628571Y-83947676D01*
X161628571Y-83947676D02*
X161533333Y-84042914D01*
X161533333Y-84042914D02*
X161438095Y-84090533D01*
X162628571Y-83804819D02*
X162723809Y-83804819D01*
X162723809Y-83804819D02*
X162819047Y-83852438D01*
X162819047Y-83852438D02*
X162866666Y-83900057D01*
X162866666Y-83900057D02*
X162914285Y-83995295D01*
X162914285Y-83995295D02*
X162961904Y-84185771D01*
X162961904Y-84185771D02*
X162961904Y-84423866D01*
X162961904Y-84423866D02*
X162914285Y-84614342D01*
X162914285Y-84614342D02*
X162866666Y-84709580D01*
X162866666Y-84709580D02*
X162819047Y-84757200D01*
X162819047Y-84757200D02*
X162723809Y-84804819D01*
X162723809Y-84804819D02*
X162628571Y-84804819D01*
X162628571Y-84804819D02*
X162533333Y-84757200D01*
X162533333Y-84757200D02*
X162485714Y-84709580D01*
X162485714Y-84709580D02*
X162438095Y-84614342D01*
X162438095Y-84614342D02*
X162390476Y-84423866D01*
X162390476Y-84423866D02*
X162390476Y-84185771D01*
X162390476Y-84185771D02*
X162438095Y-83995295D01*
X162438095Y-83995295D02*
X162485714Y-83900057D01*
X162485714Y-83900057D02*
X162533333Y-83852438D01*
X162533333Y-83852438D02*
X162628571Y-83804819D01*
X141634819Y-52758333D02*
X142349104Y-52758333D01*
X142349104Y-52758333D02*
X142491961Y-52805952D01*
X142491961Y-52805952D02*
X142587200Y-52901190D01*
X142587200Y-52901190D02*
X142634819Y-53044047D01*
X142634819Y-53044047D02*
X142634819Y-53139285D01*
X141634819Y-52377380D02*
X141634819Y-51710714D01*
X141634819Y-51710714D02*
X142634819Y-52139285D01*
X132584819Y-125459523D02*
X133299104Y-125459523D01*
X133299104Y-125459523D02*
X133441961Y-125507142D01*
X133441961Y-125507142D02*
X133537200Y-125602380D01*
X133537200Y-125602380D02*
X133584819Y-125745237D01*
X133584819Y-125745237D02*
X133584819Y-125840475D01*
X133584819Y-124459523D02*
X133584819Y-125030951D01*
X133584819Y-124745237D02*
X132584819Y-124745237D01*
X132584819Y-124745237D02*
X132727676Y-124840475D01*
X132727676Y-124840475D02*
X132822914Y-124935713D01*
X132822914Y-124935713D02*
X132870533Y-125030951D01*
X132680057Y-124078570D02*
X132632438Y-124030951D01*
X132632438Y-124030951D02*
X132584819Y-123935713D01*
X132584819Y-123935713D02*
X132584819Y-123697618D01*
X132584819Y-123697618D02*
X132632438Y-123602380D01*
X132632438Y-123602380D02*
X132680057Y-123554761D01*
X132680057Y-123554761D02*
X132775295Y-123507142D01*
X132775295Y-123507142D02*
X132870533Y-123507142D01*
X132870533Y-123507142D02*
X133013390Y-123554761D01*
X133013390Y-123554761D02*
X133584819Y-124126189D01*
X133584819Y-124126189D02*
X133584819Y-123507142D01*
X214124819Y-83911904D02*
X214934342Y-83911904D01*
X214934342Y-83911904D02*
X215029580Y-83864285D01*
X215029580Y-83864285D02*
X215077200Y-83816666D01*
X215077200Y-83816666D02*
X215124819Y-83721428D01*
X215124819Y-83721428D02*
X215124819Y-83530952D01*
X215124819Y-83530952D02*
X215077200Y-83435714D01*
X215077200Y-83435714D02*
X215029580Y-83388095D01*
X215029580Y-83388095D02*
X214934342Y-83340476D01*
X214934342Y-83340476D02*
X214124819Y-83340476D01*
X215124819Y-82816666D02*
X215124819Y-82626190D01*
X215124819Y-82626190D02*
X215077200Y-82530952D01*
X215077200Y-82530952D02*
X215029580Y-82483333D01*
X215029580Y-82483333D02*
X214886723Y-82388095D01*
X214886723Y-82388095D02*
X214696247Y-82340476D01*
X214696247Y-82340476D02*
X214315295Y-82340476D01*
X214315295Y-82340476D02*
X214220057Y-82388095D01*
X214220057Y-82388095D02*
X214172438Y-82435714D01*
X214172438Y-82435714D02*
X214124819Y-82530952D01*
X214124819Y-82530952D02*
X214124819Y-82721428D01*
X214124819Y-82721428D02*
X214172438Y-82816666D01*
X214172438Y-82816666D02*
X214220057Y-82864285D01*
X214220057Y-82864285D02*
X214315295Y-82911904D01*
X214315295Y-82911904D02*
X214553390Y-82911904D01*
X214553390Y-82911904D02*
X214648628Y-82864285D01*
X214648628Y-82864285D02*
X214696247Y-82816666D01*
X214696247Y-82816666D02*
X214743866Y-82721428D01*
X214743866Y-82721428D02*
X214743866Y-82530952D01*
X214743866Y-82530952D02*
X214696247Y-82435714D01*
X214696247Y-82435714D02*
X214648628Y-82388095D01*
X214648628Y-82388095D02*
X214553390Y-82340476D01*
X124598095Y-92384819D02*
X124598095Y-93194342D01*
X124598095Y-93194342D02*
X124645714Y-93289580D01*
X124645714Y-93289580D02*
X124693333Y-93337200D01*
X124693333Y-93337200D02*
X124788571Y-93384819D01*
X124788571Y-93384819D02*
X124979047Y-93384819D01*
X124979047Y-93384819D02*
X125074285Y-93337200D01*
X125074285Y-93337200D02*
X125121904Y-93289580D01*
X125121904Y-93289580D02*
X125169523Y-93194342D01*
X125169523Y-93194342D02*
X125169523Y-92384819D01*
X125550476Y-92384819D02*
X126217142Y-92384819D01*
X126217142Y-92384819D02*
X125788571Y-93384819D01*
X164689580Y-58206666D02*
X164737200Y-58254285D01*
X164737200Y-58254285D02*
X164784819Y-58397142D01*
X164784819Y-58397142D02*
X164784819Y-58492380D01*
X164784819Y-58492380D02*
X164737200Y-58635237D01*
X164737200Y-58635237D02*
X164641961Y-58730475D01*
X164641961Y-58730475D02*
X164546723Y-58778094D01*
X164546723Y-58778094D02*
X164356247Y-58825713D01*
X164356247Y-58825713D02*
X164213390Y-58825713D01*
X164213390Y-58825713D02*
X164022914Y-58778094D01*
X164022914Y-58778094D02*
X163927676Y-58730475D01*
X163927676Y-58730475D02*
X163832438Y-58635237D01*
X163832438Y-58635237D02*
X163784819Y-58492380D01*
X163784819Y-58492380D02*
X163784819Y-58397142D01*
X163784819Y-58397142D02*
X163832438Y-58254285D01*
X163832438Y-58254285D02*
X163880057Y-58206666D01*
X163784819Y-57873332D02*
X163784819Y-57254285D01*
X163784819Y-57254285D02*
X164165771Y-57587618D01*
X164165771Y-57587618D02*
X164165771Y-57444761D01*
X164165771Y-57444761D02*
X164213390Y-57349523D01*
X164213390Y-57349523D02*
X164261009Y-57301904D01*
X164261009Y-57301904D02*
X164356247Y-57254285D01*
X164356247Y-57254285D02*
X164594342Y-57254285D01*
X164594342Y-57254285D02*
X164689580Y-57301904D01*
X164689580Y-57301904D02*
X164737200Y-57349523D01*
X164737200Y-57349523D02*
X164784819Y-57444761D01*
X164784819Y-57444761D02*
X164784819Y-57730475D01*
X164784819Y-57730475D02*
X164737200Y-57825713D01*
X164737200Y-57825713D02*
X164689580Y-57873332D01*
X216116666Y-127754819D02*
X216116666Y-128469104D01*
X216116666Y-128469104D02*
X216069047Y-128611961D01*
X216069047Y-128611961D02*
X215973809Y-128707200D01*
X215973809Y-128707200D02*
X215830952Y-128754819D01*
X215830952Y-128754819D02*
X215735714Y-128754819D01*
X217069047Y-127754819D02*
X216592857Y-127754819D01*
X216592857Y-127754819D02*
X216545238Y-128231009D01*
X216545238Y-128231009D02*
X216592857Y-128183390D01*
X216592857Y-128183390D02*
X216688095Y-128135771D01*
X216688095Y-128135771D02*
X216926190Y-128135771D01*
X216926190Y-128135771D02*
X217021428Y-128183390D01*
X217021428Y-128183390D02*
X217069047Y-128231009D01*
X217069047Y-128231009D02*
X217116666Y-128326247D01*
X217116666Y-128326247D02*
X217116666Y-128564342D01*
X217116666Y-128564342D02*
X217069047Y-128659580D01*
X217069047Y-128659580D02*
X217021428Y-128707200D01*
X217021428Y-128707200D02*
X216926190Y-128754819D01*
X216926190Y-128754819D02*
X216688095Y-128754819D01*
X216688095Y-128754819D02*
X216592857Y-128707200D01*
X216592857Y-128707200D02*
X216545238Y-128659580D01*
X222590476Y-70974819D02*
X222590476Y-71689104D01*
X222590476Y-71689104D02*
X222542857Y-71831961D01*
X222542857Y-71831961D02*
X222447619Y-71927200D01*
X222447619Y-71927200D02*
X222304762Y-71974819D01*
X222304762Y-71974819D02*
X222209524Y-71974819D01*
X223590476Y-71974819D02*
X223019048Y-71974819D01*
X223304762Y-71974819D02*
X223304762Y-70974819D01*
X223304762Y-70974819D02*
X223209524Y-71117676D01*
X223209524Y-71117676D02*
X223114286Y-71212914D01*
X223114286Y-71212914D02*
X223019048Y-71260533D01*
X224209524Y-70974819D02*
X224304762Y-70974819D01*
X224304762Y-70974819D02*
X224400000Y-71022438D01*
X224400000Y-71022438D02*
X224447619Y-71070057D01*
X224447619Y-71070057D02*
X224495238Y-71165295D01*
X224495238Y-71165295D02*
X224542857Y-71355771D01*
X224542857Y-71355771D02*
X224542857Y-71593866D01*
X224542857Y-71593866D02*
X224495238Y-71784342D01*
X224495238Y-71784342D02*
X224447619Y-71879580D01*
X224447619Y-71879580D02*
X224400000Y-71927200D01*
X224400000Y-71927200D02*
X224304762Y-71974819D01*
X224304762Y-71974819D02*
X224209524Y-71974819D01*
X224209524Y-71974819D02*
X224114286Y-71927200D01*
X224114286Y-71927200D02*
X224066667Y-71879580D01*
X224066667Y-71879580D02*
X224019048Y-71784342D01*
X224019048Y-71784342D02*
X223971429Y-71593866D01*
X223971429Y-71593866D02*
X223971429Y-71355771D01*
X223971429Y-71355771D02*
X224019048Y-71165295D01*
X224019048Y-71165295D02*
X224066667Y-71070057D01*
X224066667Y-71070057D02*
X224114286Y-71022438D01*
X224114286Y-71022438D02*
X224209524Y-70974819D01*
X191959580Y-56406666D02*
X192007200Y-56454285D01*
X192007200Y-56454285D02*
X192054819Y-56597142D01*
X192054819Y-56597142D02*
X192054819Y-56692380D01*
X192054819Y-56692380D02*
X192007200Y-56835237D01*
X192007200Y-56835237D02*
X191911961Y-56930475D01*
X191911961Y-56930475D02*
X191816723Y-56978094D01*
X191816723Y-56978094D02*
X191626247Y-57025713D01*
X191626247Y-57025713D02*
X191483390Y-57025713D01*
X191483390Y-57025713D02*
X191292914Y-56978094D01*
X191292914Y-56978094D02*
X191197676Y-56930475D01*
X191197676Y-56930475D02*
X191102438Y-56835237D01*
X191102438Y-56835237D02*
X191054819Y-56692380D01*
X191054819Y-56692380D02*
X191054819Y-56597142D01*
X191054819Y-56597142D02*
X191102438Y-56454285D01*
X191102438Y-56454285D02*
X191150057Y-56406666D01*
X191483390Y-55835237D02*
X191435771Y-55930475D01*
X191435771Y-55930475D02*
X191388152Y-55978094D01*
X191388152Y-55978094D02*
X191292914Y-56025713D01*
X191292914Y-56025713D02*
X191245295Y-56025713D01*
X191245295Y-56025713D02*
X191150057Y-55978094D01*
X191150057Y-55978094D02*
X191102438Y-55930475D01*
X191102438Y-55930475D02*
X191054819Y-55835237D01*
X191054819Y-55835237D02*
X191054819Y-55644761D01*
X191054819Y-55644761D02*
X191102438Y-55549523D01*
X191102438Y-55549523D02*
X191150057Y-55501904D01*
X191150057Y-55501904D02*
X191245295Y-55454285D01*
X191245295Y-55454285D02*
X191292914Y-55454285D01*
X191292914Y-55454285D02*
X191388152Y-55501904D01*
X191388152Y-55501904D02*
X191435771Y-55549523D01*
X191435771Y-55549523D02*
X191483390Y-55644761D01*
X191483390Y-55644761D02*
X191483390Y-55835237D01*
X191483390Y-55835237D02*
X191531009Y-55930475D01*
X191531009Y-55930475D02*
X191578628Y-55978094D01*
X191578628Y-55978094D02*
X191673866Y-56025713D01*
X191673866Y-56025713D02*
X191864342Y-56025713D01*
X191864342Y-56025713D02*
X191959580Y-55978094D01*
X191959580Y-55978094D02*
X192007200Y-55930475D01*
X192007200Y-55930475D02*
X192054819Y-55835237D01*
X192054819Y-55835237D02*
X192054819Y-55644761D01*
X192054819Y-55644761D02*
X192007200Y-55549523D01*
X192007200Y-55549523D02*
X191959580Y-55501904D01*
X191959580Y-55501904D02*
X191864342Y-55454285D01*
X191864342Y-55454285D02*
X191673866Y-55454285D01*
X191673866Y-55454285D02*
X191578628Y-55501904D01*
X191578628Y-55501904D02*
X191531009Y-55549523D01*
X191531009Y-55549523D02*
X191483390Y-55644761D01*
X126709580Y-59266666D02*
X126757200Y-59314285D01*
X126757200Y-59314285D02*
X126804819Y-59457142D01*
X126804819Y-59457142D02*
X126804819Y-59552380D01*
X126804819Y-59552380D02*
X126757200Y-59695237D01*
X126757200Y-59695237D02*
X126661961Y-59790475D01*
X126661961Y-59790475D02*
X126566723Y-59838094D01*
X126566723Y-59838094D02*
X126376247Y-59885713D01*
X126376247Y-59885713D02*
X126233390Y-59885713D01*
X126233390Y-59885713D02*
X126042914Y-59838094D01*
X126042914Y-59838094D02*
X125947676Y-59790475D01*
X125947676Y-59790475D02*
X125852438Y-59695237D01*
X125852438Y-59695237D02*
X125804819Y-59552380D01*
X125804819Y-59552380D02*
X125804819Y-59457142D01*
X125804819Y-59457142D02*
X125852438Y-59314285D01*
X125852438Y-59314285D02*
X125900057Y-59266666D01*
X126804819Y-58314285D02*
X126804819Y-58885713D01*
X126804819Y-58599999D02*
X125804819Y-58599999D01*
X125804819Y-58599999D02*
X125947676Y-58695237D01*
X125947676Y-58695237D02*
X126042914Y-58790475D01*
X126042914Y-58790475D02*
X126090533Y-58885713D01*
X153333333Y-61379580D02*
X153285714Y-61427200D01*
X153285714Y-61427200D02*
X153142857Y-61474819D01*
X153142857Y-61474819D02*
X153047619Y-61474819D01*
X153047619Y-61474819D02*
X152904762Y-61427200D01*
X152904762Y-61427200D02*
X152809524Y-61331961D01*
X152809524Y-61331961D02*
X152761905Y-61236723D01*
X152761905Y-61236723D02*
X152714286Y-61046247D01*
X152714286Y-61046247D02*
X152714286Y-60903390D01*
X152714286Y-60903390D02*
X152761905Y-60712914D01*
X152761905Y-60712914D02*
X152809524Y-60617676D01*
X152809524Y-60617676D02*
X152904762Y-60522438D01*
X152904762Y-60522438D02*
X153047619Y-60474819D01*
X153047619Y-60474819D02*
X153142857Y-60474819D01*
X153142857Y-60474819D02*
X153285714Y-60522438D01*
X153285714Y-60522438D02*
X153333333Y-60570057D01*
X153714286Y-60570057D02*
X153761905Y-60522438D01*
X153761905Y-60522438D02*
X153857143Y-60474819D01*
X153857143Y-60474819D02*
X154095238Y-60474819D01*
X154095238Y-60474819D02*
X154190476Y-60522438D01*
X154190476Y-60522438D02*
X154238095Y-60570057D01*
X154238095Y-60570057D02*
X154285714Y-60665295D01*
X154285714Y-60665295D02*
X154285714Y-60760533D01*
X154285714Y-60760533D02*
X154238095Y-60903390D01*
X154238095Y-60903390D02*
X153666667Y-61474819D01*
X153666667Y-61474819D02*
X154285714Y-61474819D01*
X163954819Y-66861904D02*
X164764342Y-66861904D01*
X164764342Y-66861904D02*
X164859580Y-66814285D01*
X164859580Y-66814285D02*
X164907200Y-66766666D01*
X164907200Y-66766666D02*
X164954819Y-66671428D01*
X164954819Y-66671428D02*
X164954819Y-66480952D01*
X164954819Y-66480952D02*
X164907200Y-66385714D01*
X164907200Y-66385714D02*
X164859580Y-66338095D01*
X164859580Y-66338095D02*
X164764342Y-66290476D01*
X164764342Y-66290476D02*
X163954819Y-66290476D01*
X163954819Y-65909523D02*
X163954819Y-65290476D01*
X163954819Y-65290476D02*
X164335771Y-65623809D01*
X164335771Y-65623809D02*
X164335771Y-65480952D01*
X164335771Y-65480952D02*
X164383390Y-65385714D01*
X164383390Y-65385714D02*
X164431009Y-65338095D01*
X164431009Y-65338095D02*
X164526247Y-65290476D01*
X164526247Y-65290476D02*
X164764342Y-65290476D01*
X164764342Y-65290476D02*
X164859580Y-65338095D01*
X164859580Y-65338095D02*
X164907200Y-65385714D01*
X164907200Y-65385714D02*
X164954819Y-65480952D01*
X164954819Y-65480952D02*
X164954819Y-65766666D01*
X164954819Y-65766666D02*
X164907200Y-65861904D01*
X164907200Y-65861904D02*
X164859580Y-65909523D01*
X163164819Y-86798094D02*
X163974342Y-86798094D01*
X163974342Y-86798094D02*
X164069580Y-86750475D01*
X164069580Y-86750475D02*
X164117200Y-86702856D01*
X164117200Y-86702856D02*
X164164819Y-86607618D01*
X164164819Y-86607618D02*
X164164819Y-86417142D01*
X164164819Y-86417142D02*
X164117200Y-86321904D01*
X164117200Y-86321904D02*
X164069580Y-86274285D01*
X164069580Y-86274285D02*
X163974342Y-86226666D01*
X163974342Y-86226666D02*
X163164819Y-86226666D01*
X164164819Y-85226666D02*
X164164819Y-85798094D01*
X164164819Y-85512380D02*
X163164819Y-85512380D01*
X163164819Y-85512380D02*
X163307676Y-85607618D01*
X163307676Y-85607618D02*
X163402914Y-85702856D01*
X163402914Y-85702856D02*
X163450533Y-85798094D01*
X163164819Y-84607618D02*
X163164819Y-84512380D01*
X163164819Y-84512380D02*
X163212438Y-84417142D01*
X163212438Y-84417142D02*
X163260057Y-84369523D01*
X163260057Y-84369523D02*
X163355295Y-84321904D01*
X163355295Y-84321904D02*
X163545771Y-84274285D01*
X163545771Y-84274285D02*
X163783866Y-84274285D01*
X163783866Y-84274285D02*
X163974342Y-84321904D01*
X163974342Y-84321904D02*
X164069580Y-84369523D01*
X164069580Y-84369523D02*
X164117200Y-84417142D01*
X164117200Y-84417142D02*
X164164819Y-84512380D01*
X164164819Y-84512380D02*
X164164819Y-84607618D01*
X164164819Y-84607618D02*
X164117200Y-84702856D01*
X164117200Y-84702856D02*
X164069580Y-84750475D01*
X164069580Y-84750475D02*
X163974342Y-84798094D01*
X163974342Y-84798094D02*
X163783866Y-84845713D01*
X163783866Y-84845713D02*
X163545771Y-84845713D01*
X163545771Y-84845713D02*
X163355295Y-84798094D01*
X163355295Y-84798094D02*
X163260057Y-84750475D01*
X163260057Y-84750475D02*
X163212438Y-84702856D01*
X163212438Y-84702856D02*
X163164819Y-84607618D01*
X184583333Y-105419580D02*
X184535714Y-105467200D01*
X184535714Y-105467200D02*
X184392857Y-105514819D01*
X184392857Y-105514819D02*
X184297619Y-105514819D01*
X184297619Y-105514819D02*
X184154762Y-105467200D01*
X184154762Y-105467200D02*
X184059524Y-105371961D01*
X184059524Y-105371961D02*
X184011905Y-105276723D01*
X184011905Y-105276723D02*
X183964286Y-105086247D01*
X183964286Y-105086247D02*
X183964286Y-104943390D01*
X183964286Y-104943390D02*
X184011905Y-104752914D01*
X184011905Y-104752914D02*
X184059524Y-104657676D01*
X184059524Y-104657676D02*
X184154762Y-104562438D01*
X184154762Y-104562438D02*
X184297619Y-104514819D01*
X184297619Y-104514819D02*
X184392857Y-104514819D01*
X184392857Y-104514819D02*
X184535714Y-104562438D01*
X184535714Y-104562438D02*
X184583333Y-104610057D01*
X184916667Y-104514819D02*
X185583333Y-104514819D01*
X185583333Y-104514819D02*
X185154762Y-105514819D01*
X192324819Y-104221904D02*
X193134342Y-104221904D01*
X193134342Y-104221904D02*
X193229580Y-104174285D01*
X193229580Y-104174285D02*
X193277200Y-104126666D01*
X193277200Y-104126666D02*
X193324819Y-104031428D01*
X193324819Y-104031428D02*
X193324819Y-103840952D01*
X193324819Y-103840952D02*
X193277200Y-103745714D01*
X193277200Y-103745714D02*
X193229580Y-103698095D01*
X193229580Y-103698095D02*
X193134342Y-103650476D01*
X193134342Y-103650476D02*
X192324819Y-103650476D01*
X192324819Y-102698095D02*
X192324819Y-103174285D01*
X192324819Y-103174285D02*
X192801009Y-103221904D01*
X192801009Y-103221904D02*
X192753390Y-103174285D01*
X192753390Y-103174285D02*
X192705771Y-103079047D01*
X192705771Y-103079047D02*
X192705771Y-102840952D01*
X192705771Y-102840952D02*
X192753390Y-102745714D01*
X192753390Y-102745714D02*
X192801009Y-102698095D01*
X192801009Y-102698095D02*
X192896247Y-102650476D01*
X192896247Y-102650476D02*
X193134342Y-102650476D01*
X193134342Y-102650476D02*
X193229580Y-102698095D01*
X193229580Y-102698095D02*
X193277200Y-102745714D01*
X193277200Y-102745714D02*
X193324819Y-102840952D01*
X193324819Y-102840952D02*
X193324819Y-103079047D01*
X193324819Y-103079047D02*
X193277200Y-103174285D01*
X193277200Y-103174285D02*
X193229580Y-103221904D01*
X148148095Y-97234819D02*
X148148095Y-98044342D01*
X148148095Y-98044342D02*
X148195714Y-98139580D01*
X148195714Y-98139580D02*
X148243333Y-98187200D01*
X148243333Y-98187200D02*
X148338571Y-98234819D01*
X148338571Y-98234819D02*
X148529047Y-98234819D01*
X148529047Y-98234819D02*
X148624285Y-98187200D01*
X148624285Y-98187200D02*
X148671904Y-98139580D01*
X148671904Y-98139580D02*
X148719523Y-98044342D01*
X148719523Y-98044342D02*
X148719523Y-97234819D01*
X149624285Y-97234819D02*
X149433809Y-97234819D01*
X149433809Y-97234819D02*
X149338571Y-97282438D01*
X149338571Y-97282438D02*
X149290952Y-97330057D01*
X149290952Y-97330057D02*
X149195714Y-97472914D01*
X149195714Y-97472914D02*
X149148095Y-97663390D01*
X149148095Y-97663390D02*
X149148095Y-98044342D01*
X149148095Y-98044342D02*
X149195714Y-98139580D01*
X149195714Y-98139580D02*
X149243333Y-98187200D01*
X149243333Y-98187200D02*
X149338571Y-98234819D01*
X149338571Y-98234819D02*
X149529047Y-98234819D01*
X149529047Y-98234819D02*
X149624285Y-98187200D01*
X149624285Y-98187200D02*
X149671904Y-98139580D01*
X149671904Y-98139580D02*
X149719523Y-98044342D01*
X149719523Y-98044342D02*
X149719523Y-97806247D01*
X149719523Y-97806247D02*
X149671904Y-97711009D01*
X149671904Y-97711009D02*
X149624285Y-97663390D01*
X149624285Y-97663390D02*
X149529047Y-97615771D01*
X149529047Y-97615771D02*
X149338571Y-97615771D01*
X149338571Y-97615771D02*
X149243333Y-97663390D01*
X149243333Y-97663390D02*
X149195714Y-97711009D01*
X149195714Y-97711009D02*
X149148095Y-97806247D01*
X223091666Y-75584819D02*
X223091666Y-76299104D01*
X223091666Y-76299104D02*
X223044047Y-76441961D01*
X223044047Y-76441961D02*
X222948809Y-76537200D01*
X222948809Y-76537200D02*
X222805952Y-76584819D01*
X222805952Y-76584819D02*
X222710714Y-76584819D01*
X223615476Y-76584819D02*
X223805952Y-76584819D01*
X223805952Y-76584819D02*
X223901190Y-76537200D01*
X223901190Y-76537200D02*
X223948809Y-76489580D01*
X223948809Y-76489580D02*
X224044047Y-76346723D01*
X224044047Y-76346723D02*
X224091666Y-76156247D01*
X224091666Y-76156247D02*
X224091666Y-75775295D01*
X224091666Y-75775295D02*
X224044047Y-75680057D01*
X224044047Y-75680057D02*
X223996428Y-75632438D01*
X223996428Y-75632438D02*
X223901190Y-75584819D01*
X223901190Y-75584819D02*
X223710714Y-75584819D01*
X223710714Y-75584819D02*
X223615476Y-75632438D01*
X223615476Y-75632438D02*
X223567857Y-75680057D01*
X223567857Y-75680057D02*
X223520238Y-75775295D01*
X223520238Y-75775295D02*
X223520238Y-76013390D01*
X223520238Y-76013390D02*
X223567857Y-76108628D01*
X223567857Y-76108628D02*
X223615476Y-76156247D01*
X223615476Y-76156247D02*
X223710714Y-76203866D01*
X223710714Y-76203866D02*
X223901190Y-76203866D01*
X223901190Y-76203866D02*
X223996428Y-76156247D01*
X223996428Y-76156247D02*
X224044047Y-76108628D01*
X224044047Y-76108628D02*
X224091666Y-76013390D01*
X198066666Y-128054819D02*
X198066666Y-128769104D01*
X198066666Y-128769104D02*
X198019047Y-128911961D01*
X198019047Y-128911961D02*
X197923809Y-129007200D01*
X197923809Y-129007200D02*
X197780952Y-129054819D01*
X197780952Y-129054819D02*
X197685714Y-129054819D01*
X198971428Y-128388152D02*
X198971428Y-129054819D01*
X198733333Y-128007200D02*
X198495238Y-128721485D01*
X198495238Y-128721485D02*
X199114285Y-128721485D01*
X124248095Y-60584819D02*
X124248095Y-61394342D01*
X124248095Y-61394342D02*
X124295714Y-61489580D01*
X124295714Y-61489580D02*
X124343333Y-61537200D01*
X124343333Y-61537200D02*
X124438571Y-61584819D01*
X124438571Y-61584819D02*
X124629047Y-61584819D01*
X124629047Y-61584819D02*
X124724285Y-61537200D01*
X124724285Y-61537200D02*
X124771904Y-61489580D01*
X124771904Y-61489580D02*
X124819523Y-61394342D01*
X124819523Y-61394342D02*
X124819523Y-60584819D01*
X125819523Y-61584819D02*
X125248095Y-61584819D01*
X125533809Y-61584819D02*
X125533809Y-60584819D01*
X125533809Y-60584819D02*
X125438571Y-60727676D01*
X125438571Y-60727676D02*
X125343333Y-60822914D01*
X125343333Y-60822914D02*
X125248095Y-60870533D01*
X110741666Y-60214819D02*
X110741666Y-60929104D01*
X110741666Y-60929104D02*
X110694047Y-61071961D01*
X110694047Y-61071961D02*
X110598809Y-61167200D01*
X110598809Y-61167200D02*
X110455952Y-61214819D01*
X110455952Y-61214819D02*
X110360714Y-61214819D01*
X111741666Y-61214819D02*
X111170238Y-61214819D01*
X111455952Y-61214819D02*
X111455952Y-60214819D01*
X111455952Y-60214819D02*
X111360714Y-60357676D01*
X111360714Y-60357676D02*
X111265476Y-60452914D01*
X111265476Y-60452914D02*
X111170238Y-60500533D01*
X208139580Y-111636666D02*
X208187200Y-111684285D01*
X208187200Y-111684285D02*
X208234819Y-111827142D01*
X208234819Y-111827142D02*
X208234819Y-111922380D01*
X208234819Y-111922380D02*
X208187200Y-112065237D01*
X208187200Y-112065237D02*
X208091961Y-112160475D01*
X208091961Y-112160475D02*
X207996723Y-112208094D01*
X207996723Y-112208094D02*
X207806247Y-112255713D01*
X207806247Y-112255713D02*
X207663390Y-112255713D01*
X207663390Y-112255713D02*
X207472914Y-112208094D01*
X207472914Y-112208094D02*
X207377676Y-112160475D01*
X207377676Y-112160475D02*
X207282438Y-112065237D01*
X207282438Y-112065237D02*
X207234819Y-111922380D01*
X207234819Y-111922380D02*
X207234819Y-111827142D01*
X207234819Y-111827142D02*
X207282438Y-111684285D01*
X207282438Y-111684285D02*
X207330057Y-111636666D01*
X207234819Y-110779523D02*
X207234819Y-110969999D01*
X207234819Y-110969999D02*
X207282438Y-111065237D01*
X207282438Y-111065237D02*
X207330057Y-111112856D01*
X207330057Y-111112856D02*
X207472914Y-111208094D01*
X207472914Y-111208094D02*
X207663390Y-111255713D01*
X207663390Y-111255713D02*
X208044342Y-111255713D01*
X208044342Y-111255713D02*
X208139580Y-111208094D01*
X208139580Y-111208094D02*
X208187200Y-111160475D01*
X208187200Y-111160475D02*
X208234819Y-111065237D01*
X208234819Y-111065237D02*
X208234819Y-110874761D01*
X208234819Y-110874761D02*
X208187200Y-110779523D01*
X208187200Y-110779523D02*
X208139580Y-110731904D01*
X208139580Y-110731904D02*
X208044342Y-110684285D01*
X208044342Y-110684285D02*
X207806247Y-110684285D01*
X207806247Y-110684285D02*
X207711009Y-110731904D01*
X207711009Y-110731904D02*
X207663390Y-110779523D01*
X207663390Y-110779523D02*
X207615771Y-110874761D01*
X207615771Y-110874761D02*
X207615771Y-111065237D01*
X207615771Y-111065237D02*
X207663390Y-111160475D01*
X207663390Y-111160475D02*
X207711009Y-111208094D01*
X207711009Y-111208094D02*
X207806247Y-111255713D01*
X109966666Y-98824819D02*
X109966666Y-99539104D01*
X109966666Y-99539104D02*
X109919047Y-99681961D01*
X109919047Y-99681961D02*
X109823809Y-99777200D01*
X109823809Y-99777200D02*
X109680952Y-99824819D01*
X109680952Y-99824819D02*
X109585714Y-99824819D01*
X110347619Y-98824819D02*
X110966666Y-98824819D01*
X110966666Y-98824819D02*
X110633333Y-99205771D01*
X110633333Y-99205771D02*
X110776190Y-99205771D01*
X110776190Y-99205771D02*
X110871428Y-99253390D01*
X110871428Y-99253390D02*
X110919047Y-99301009D01*
X110919047Y-99301009D02*
X110966666Y-99396247D01*
X110966666Y-99396247D02*
X110966666Y-99634342D01*
X110966666Y-99634342D02*
X110919047Y-99729580D01*
X110919047Y-99729580D02*
X110871428Y-99777200D01*
X110871428Y-99777200D02*
X110776190Y-99824819D01*
X110776190Y-99824819D02*
X110490476Y-99824819D01*
X110490476Y-99824819D02*
X110395238Y-99777200D01*
X110395238Y-99777200D02*
X110347619Y-99729580D01*
X115304819Y-52983333D02*
X116019104Y-52983333D01*
X116019104Y-52983333D02*
X116161961Y-53030952D01*
X116161961Y-53030952D02*
X116257200Y-53126190D01*
X116257200Y-53126190D02*
X116304819Y-53269047D01*
X116304819Y-53269047D02*
X116304819Y-53364285D01*
X115304819Y-52078571D02*
X115304819Y-52269047D01*
X115304819Y-52269047D02*
X115352438Y-52364285D01*
X115352438Y-52364285D02*
X115400057Y-52411904D01*
X115400057Y-52411904D02*
X115542914Y-52507142D01*
X115542914Y-52507142D02*
X115733390Y-52554761D01*
X115733390Y-52554761D02*
X116114342Y-52554761D01*
X116114342Y-52554761D02*
X116209580Y-52507142D01*
X116209580Y-52507142D02*
X116257200Y-52459523D01*
X116257200Y-52459523D02*
X116304819Y-52364285D01*
X116304819Y-52364285D02*
X116304819Y-52173809D01*
X116304819Y-52173809D02*
X116257200Y-52078571D01*
X116257200Y-52078571D02*
X116209580Y-52030952D01*
X116209580Y-52030952D02*
X116114342Y-51983333D01*
X116114342Y-51983333D02*
X115876247Y-51983333D01*
X115876247Y-51983333D02*
X115781009Y-52030952D01*
X115781009Y-52030952D02*
X115733390Y-52078571D01*
X115733390Y-52078571D02*
X115685771Y-52173809D01*
X115685771Y-52173809D02*
X115685771Y-52364285D01*
X115685771Y-52364285D02*
X115733390Y-52459523D01*
X115733390Y-52459523D02*
X115781009Y-52507142D01*
X115781009Y-52507142D02*
X115876247Y-52554761D01*
X110366666Y-79334819D02*
X110366666Y-80049104D01*
X110366666Y-80049104D02*
X110319047Y-80191961D01*
X110319047Y-80191961D02*
X110223809Y-80287200D01*
X110223809Y-80287200D02*
X110080952Y-80334819D01*
X110080952Y-80334819D02*
X109985714Y-80334819D01*
X110795238Y-79430057D02*
X110842857Y-79382438D01*
X110842857Y-79382438D02*
X110938095Y-79334819D01*
X110938095Y-79334819D02*
X111176190Y-79334819D01*
X111176190Y-79334819D02*
X111271428Y-79382438D01*
X111271428Y-79382438D02*
X111319047Y-79430057D01*
X111319047Y-79430057D02*
X111366666Y-79525295D01*
X111366666Y-79525295D02*
X111366666Y-79620533D01*
X111366666Y-79620533D02*
X111319047Y-79763390D01*
X111319047Y-79763390D02*
X110747619Y-80334819D01*
X110747619Y-80334819D02*
X111366666Y-80334819D01*
X144548095Y-60644819D02*
X144548095Y-61454342D01*
X144548095Y-61454342D02*
X144595714Y-61549580D01*
X144595714Y-61549580D02*
X144643333Y-61597200D01*
X144643333Y-61597200D02*
X144738571Y-61644819D01*
X144738571Y-61644819D02*
X144929047Y-61644819D01*
X144929047Y-61644819D02*
X145024285Y-61597200D01*
X145024285Y-61597200D02*
X145071904Y-61549580D01*
X145071904Y-61549580D02*
X145119523Y-61454342D01*
X145119523Y-61454342D02*
X145119523Y-60644819D01*
X145548095Y-60740057D02*
X145595714Y-60692438D01*
X145595714Y-60692438D02*
X145690952Y-60644819D01*
X145690952Y-60644819D02*
X145929047Y-60644819D01*
X145929047Y-60644819D02*
X146024285Y-60692438D01*
X146024285Y-60692438D02*
X146071904Y-60740057D01*
X146071904Y-60740057D02*
X146119523Y-60835295D01*
X146119523Y-60835295D02*
X146119523Y-60930533D01*
X146119523Y-60930533D02*
X146071904Y-61073390D01*
X146071904Y-61073390D02*
X145500476Y-61644819D01*
X145500476Y-61644819D02*
X146119523Y-61644819D01*
X191184819Y-65111904D02*
X191994342Y-65111904D01*
X191994342Y-65111904D02*
X192089580Y-65064285D01*
X192089580Y-65064285D02*
X192137200Y-65016666D01*
X192137200Y-65016666D02*
X192184819Y-64921428D01*
X192184819Y-64921428D02*
X192184819Y-64730952D01*
X192184819Y-64730952D02*
X192137200Y-64635714D01*
X192137200Y-64635714D02*
X192089580Y-64588095D01*
X192089580Y-64588095D02*
X191994342Y-64540476D01*
X191994342Y-64540476D02*
X191184819Y-64540476D01*
X191613390Y-63921428D02*
X191565771Y-64016666D01*
X191565771Y-64016666D02*
X191518152Y-64064285D01*
X191518152Y-64064285D02*
X191422914Y-64111904D01*
X191422914Y-64111904D02*
X191375295Y-64111904D01*
X191375295Y-64111904D02*
X191280057Y-64064285D01*
X191280057Y-64064285D02*
X191232438Y-64016666D01*
X191232438Y-64016666D02*
X191184819Y-63921428D01*
X191184819Y-63921428D02*
X191184819Y-63730952D01*
X191184819Y-63730952D02*
X191232438Y-63635714D01*
X191232438Y-63635714D02*
X191280057Y-63588095D01*
X191280057Y-63588095D02*
X191375295Y-63540476D01*
X191375295Y-63540476D02*
X191422914Y-63540476D01*
X191422914Y-63540476D02*
X191518152Y-63588095D01*
X191518152Y-63588095D02*
X191565771Y-63635714D01*
X191565771Y-63635714D02*
X191613390Y-63730952D01*
X191613390Y-63730952D02*
X191613390Y-63921428D01*
X191613390Y-63921428D02*
X191661009Y-64016666D01*
X191661009Y-64016666D02*
X191708628Y-64064285D01*
X191708628Y-64064285D02*
X191803866Y-64111904D01*
X191803866Y-64111904D02*
X191994342Y-64111904D01*
X191994342Y-64111904D02*
X192089580Y-64064285D01*
X192089580Y-64064285D02*
X192137200Y-64016666D01*
X192137200Y-64016666D02*
X192184819Y-63921428D01*
X192184819Y-63921428D02*
X192184819Y-63730952D01*
X192184819Y-63730952D02*
X192137200Y-63635714D01*
X192137200Y-63635714D02*
X192089580Y-63588095D01*
X192089580Y-63588095D02*
X191994342Y-63540476D01*
X191994342Y-63540476D02*
X191803866Y-63540476D01*
X191803866Y-63540476D02*
X191708628Y-63588095D01*
X191708628Y-63588095D02*
X191661009Y-63635714D01*
X191661009Y-63635714D02*
X191613390Y-63730952D01*
X133303333Y-93049580D02*
X133255714Y-93097200D01*
X133255714Y-93097200D02*
X133112857Y-93144819D01*
X133112857Y-93144819D02*
X133017619Y-93144819D01*
X133017619Y-93144819D02*
X132874762Y-93097200D01*
X132874762Y-93097200D02*
X132779524Y-93001961D01*
X132779524Y-93001961D02*
X132731905Y-92906723D01*
X132731905Y-92906723D02*
X132684286Y-92716247D01*
X132684286Y-92716247D02*
X132684286Y-92573390D01*
X132684286Y-92573390D02*
X132731905Y-92382914D01*
X132731905Y-92382914D02*
X132779524Y-92287676D01*
X132779524Y-92287676D02*
X132874762Y-92192438D01*
X132874762Y-92192438D02*
X133017619Y-92144819D01*
X133017619Y-92144819D02*
X133112857Y-92144819D01*
X133112857Y-92144819D02*
X133255714Y-92192438D01*
X133255714Y-92192438D02*
X133303333Y-92240057D01*
X134208095Y-92144819D02*
X133731905Y-92144819D01*
X133731905Y-92144819D02*
X133684286Y-92621009D01*
X133684286Y-92621009D02*
X133731905Y-92573390D01*
X133731905Y-92573390D02*
X133827143Y-92525771D01*
X133827143Y-92525771D02*
X134065238Y-92525771D01*
X134065238Y-92525771D02*
X134160476Y-92573390D01*
X134160476Y-92573390D02*
X134208095Y-92621009D01*
X134208095Y-92621009D02*
X134255714Y-92716247D01*
X134255714Y-92716247D02*
X134255714Y-92954342D01*
X134255714Y-92954342D02*
X134208095Y-93049580D01*
X134208095Y-93049580D02*
X134160476Y-93097200D01*
X134160476Y-93097200D02*
X134065238Y-93144819D01*
X134065238Y-93144819D02*
X133827143Y-93144819D01*
X133827143Y-93144819D02*
X133731905Y-93097200D01*
X133731905Y-93097200D02*
X133684286Y-93049580D01*
X156933333Y-98009580D02*
X156885714Y-98057200D01*
X156885714Y-98057200D02*
X156742857Y-98104819D01*
X156742857Y-98104819D02*
X156647619Y-98104819D01*
X156647619Y-98104819D02*
X156504762Y-98057200D01*
X156504762Y-98057200D02*
X156409524Y-97961961D01*
X156409524Y-97961961D02*
X156361905Y-97866723D01*
X156361905Y-97866723D02*
X156314286Y-97676247D01*
X156314286Y-97676247D02*
X156314286Y-97533390D01*
X156314286Y-97533390D02*
X156361905Y-97342914D01*
X156361905Y-97342914D02*
X156409524Y-97247676D01*
X156409524Y-97247676D02*
X156504762Y-97152438D01*
X156504762Y-97152438D02*
X156647619Y-97104819D01*
X156647619Y-97104819D02*
X156742857Y-97104819D01*
X156742857Y-97104819D02*
X156885714Y-97152438D01*
X156885714Y-97152438D02*
X156933333Y-97200057D01*
X157790476Y-97438152D02*
X157790476Y-98104819D01*
X157552381Y-97057200D02*
X157314286Y-97771485D01*
X157314286Y-97771485D02*
X157933333Y-97771485D01*
D12*
%TO.C,J8*%
X172370000Y-50995000D02*
X173700000Y-50995000D01*
X172370000Y-52325000D02*
X172370000Y-50995000D01*
X174970000Y-50995000D02*
X182650000Y-50995000D01*
X174970000Y-53655000D02*
X174970000Y-50995000D01*
X174970000Y-53655000D02*
X182650000Y-53655000D01*
X182650000Y-53655000D02*
X182650000Y-50995000D01*
%TO.C,C9*%
X210980000Y-88740000D02*
X213720000Y-88740000D01*
X210980000Y-93980000D02*
X210980000Y-88740000D01*
X213720000Y-88740000D02*
X213720000Y-93980000D01*
X213720000Y-93980000D02*
X210980000Y-93980000D01*
%TO.C,U4*%
X174460000Y-98740000D02*
X174460000Y-119180000D01*
X174460000Y-119180000D02*
X175710000Y-119180000D01*
X177710000Y-119180000D02*
X178960000Y-119180000D01*
X178960000Y-98740000D02*
X174460000Y-98740000D01*
X178960000Y-119180000D02*
X178960000Y-98740000D01*
X175710000Y-119180000D02*
G75*
G02*
X177710000Y-119180000I1000000J0D01*
G01*
%TO.C,C10*%
X159080000Y-80480000D02*
X164320000Y-80480000D01*
X159080000Y-83220000D02*
X159080000Y-80480000D01*
X164320000Y-80480000D02*
X164320000Y-83220000D01*
X164320000Y-83220000D02*
X159080000Y-83220000D01*
%TO.C,J7*%
X143620000Y-51095000D02*
X144950000Y-51095000D01*
X143620000Y-52425000D02*
X143620000Y-51095000D01*
X146220000Y-51095000D02*
X153900000Y-51095000D01*
X146220000Y-53755000D02*
X146220000Y-51095000D01*
X146220000Y-53755000D02*
X153900000Y-53755000D01*
X153900000Y-53755000D02*
X153900000Y-51095000D01*
%TO.C,J12*%
X134570000Y-123320000D02*
X135900000Y-123320000D01*
X134570000Y-124650000D02*
X134570000Y-123320000D01*
X137170000Y-123320000D02*
X139770000Y-123320000D01*
X137170000Y-125980000D02*
X137170000Y-123320000D01*
X137170000Y-125980000D02*
X139770000Y-125980000D01*
X139770000Y-125980000D02*
X139770000Y-123320000D01*
%TO.C,U9*%
X193230000Y-80900000D02*
X193230000Y-85400000D01*
X193230000Y-85400000D02*
X213670000Y-85400000D01*
X213670000Y-80900000D02*
X193230000Y-80900000D01*
X213670000Y-82150000D02*
X213670000Y-80900000D01*
X213670000Y-85400000D02*
X213670000Y-84150000D01*
X213670000Y-84150000D02*
G75*
G02*
X213670000Y-82150000I0J1000000D01*
G01*
%TO.C,U7*%
X123110000Y-93930000D02*
X123110000Y-114370000D01*
X123110000Y-114370000D02*
X127610000Y-114370000D01*
X124360000Y-93930000D02*
X123110000Y-93930000D01*
X127610000Y-93930000D02*
X126360000Y-93930000D01*
X127610000Y-114370000D02*
X127610000Y-93930000D01*
X126360000Y-93930000D02*
G75*
G02*
X124360000Y-93930000I-1000000J0D01*
G01*
%TO.C,C3*%
X165460000Y-55420000D02*
X168200000Y-55420000D01*
X165460000Y-60660000D02*
X165460000Y-55420000D01*
X168200000Y-55420000D02*
X168200000Y-60660000D01*
X168200000Y-60660000D02*
X165460000Y-60660000D01*
%TO.C,J5*%
X212170000Y-127160000D02*
X212170000Y-119480000D01*
X212170000Y-129760000D02*
X212170000Y-128430000D01*
X213500000Y-129760000D02*
X212170000Y-129760000D01*
X214830000Y-119480000D02*
X212170000Y-119480000D01*
X214830000Y-127160000D02*
X212170000Y-127160000D01*
X214830000Y-127160000D02*
X214830000Y-119480000D01*
%TO.C,J10*%
X222070000Y-67480000D02*
X222070000Y-59800000D01*
X222070000Y-70080000D02*
X222070000Y-68750000D01*
X223400000Y-70080000D02*
X222070000Y-70080000D01*
X224730000Y-59800000D02*
X222070000Y-59800000D01*
X224730000Y-67480000D02*
X222070000Y-67480000D01*
X224730000Y-67480000D02*
X224730000Y-59800000D01*
%TO.C,C8*%
X192730000Y-53620000D02*
X195470000Y-53620000D01*
X192730000Y-58860000D02*
X192730000Y-53620000D01*
X195470000Y-53620000D02*
X195470000Y-58860000D01*
X195470000Y-58860000D02*
X192730000Y-58860000D01*
%TO.C,C1*%
X127480000Y-56480000D02*
X130220000Y-56480000D01*
X127480000Y-61720000D02*
X127480000Y-56480000D01*
X130220000Y-56480000D02*
X130220000Y-61720000D01*
X130220000Y-61720000D02*
X127480000Y-61720000D01*
%TO.C,C2*%
X150880000Y-62150000D02*
X156120000Y-62150000D01*
X150880000Y-64890000D02*
X150880000Y-62150000D01*
X156120000Y-62150000D02*
X156120000Y-64890000D01*
X156120000Y-64890000D02*
X150880000Y-64890000D01*
%TO.C,U3*%
X165500000Y-63850000D02*
X165500000Y-65100000D01*
X165500000Y-67100000D02*
X165500000Y-68350000D01*
X165500000Y-68350000D02*
X183400000Y-68350000D01*
X183400000Y-63850000D02*
X165500000Y-63850000D01*
X183400000Y-68350000D02*
X183400000Y-63850000D01*
X165500000Y-65100000D02*
G75*
G02*
X165500000Y-67100000I0J-1000000D01*
G01*
%TO.C,U10*%
X164710000Y-83310000D02*
X164710000Y-84560000D01*
X164710000Y-86560000D02*
X164710000Y-87810000D01*
X164710000Y-87810000D02*
X182610000Y-87810000D01*
X182610000Y-83310000D02*
X164710000Y-83310000D01*
X182610000Y-87810000D02*
X182610000Y-83310000D01*
X164710000Y-84560000D02*
G75*
G02*
X164710000Y-86560000I0J-1000000D01*
G01*
%TO.C,C7*%
X182130000Y-106190000D02*
X187370000Y-106190000D01*
X182130000Y-108930000D02*
X182130000Y-106190000D01*
X187370000Y-106190000D02*
X187370000Y-108930000D01*
X187370000Y-108930000D02*
X182130000Y-108930000D01*
%TO.C,U5*%
X193870000Y-101210000D02*
X193870000Y-102460000D01*
X193870000Y-104460000D02*
X193870000Y-105710000D01*
X193870000Y-105710000D02*
X214310000Y-105710000D01*
X214310000Y-101210000D02*
X193870000Y-101210000D01*
X214310000Y-105710000D02*
X214310000Y-101210000D01*
X193870000Y-102460000D02*
G75*
G02*
X193870000Y-104460000I0J-1000000D01*
G01*
%TO.C,U6*%
X146660000Y-98780000D02*
X146660000Y-116680000D01*
X146660000Y-116680000D02*
X151160000Y-116680000D01*
X147910000Y-98780000D02*
X146660000Y-98780000D01*
X151160000Y-98780000D02*
X149910000Y-98780000D01*
X151160000Y-116680000D02*
X151160000Y-98780000D01*
X149910000Y-98780000D02*
G75*
G02*
X147910000Y-98780000I-1000000J0D01*
G01*
%TO.C,J9*%
X222095000Y-80170000D02*
X222095000Y-87850000D01*
X222095000Y-80170000D02*
X224755000Y-80170000D01*
X222095000Y-87850000D02*
X224755000Y-87850000D01*
X223425000Y-77570000D02*
X224755000Y-77570000D01*
X224755000Y-77570000D02*
X224755000Y-78900000D01*
X224755000Y-80170000D02*
X224755000Y-87850000D01*
%TO.C,J4*%
X199920000Y-127460000D02*
X199920000Y-119780000D01*
X199920000Y-130060000D02*
X199920000Y-128730000D01*
X201250000Y-130060000D02*
X199920000Y-130060000D01*
X202580000Y-119780000D02*
X199920000Y-119780000D01*
X202580000Y-127460000D02*
X199920000Y-127460000D01*
X202580000Y-127460000D02*
X202580000Y-119780000D01*
%TO.C,U1*%
X122760000Y-62130000D02*
X122760000Y-80030000D01*
X122760000Y-80030000D02*
X127260000Y-80030000D01*
X124010000Y-62130000D02*
X122760000Y-62130000D01*
X127260000Y-62130000D02*
X126010000Y-62130000D01*
X127260000Y-80030000D02*
X127260000Y-62130000D01*
X126010000Y-62130000D02*
G75*
G02*
X124010000Y-62130000I-1000000J0D01*
G01*
%TO.C,J1*%
X109745000Y-64800000D02*
X109745000Y-72480000D01*
X109745000Y-64800000D02*
X112405000Y-64800000D01*
X109745000Y-72480000D02*
X112405000Y-72480000D01*
X111075000Y-62200000D02*
X112405000Y-62200000D01*
X112405000Y-62200000D02*
X112405000Y-63530000D01*
X112405000Y-64800000D02*
X112405000Y-72480000D01*
%TO.C,C6*%
X203910000Y-108850000D02*
X206650000Y-108850000D01*
X203910000Y-114090000D02*
X203910000Y-108850000D01*
X206650000Y-108850000D02*
X206650000Y-114090000D01*
X206650000Y-114090000D02*
X203910000Y-114090000D01*
%TO.C,J3*%
X108970000Y-103410000D02*
X108970000Y-108550000D01*
X108970000Y-103410000D02*
X111630000Y-103410000D01*
X108970000Y-108550000D02*
X111630000Y-108550000D01*
X110300000Y-100810000D02*
X111630000Y-100810000D01*
X111630000Y-100810000D02*
X111630000Y-102140000D01*
X111630000Y-103410000D02*
X111630000Y-108550000D01*
%TO.C,J6*%
X117290000Y-51320000D02*
X118620000Y-51320000D01*
X117290000Y-52650000D02*
X117290000Y-51320000D01*
X119890000Y-51320000D02*
X127570000Y-51320000D01*
X119890000Y-53980000D02*
X119890000Y-51320000D01*
X119890000Y-53980000D02*
X127570000Y-53980000D01*
X127570000Y-53980000D02*
X127570000Y-51320000D01*
%TO.C,J2*%
X109370000Y-83920000D02*
X109370000Y-91600000D01*
X109370000Y-83920000D02*
X112030000Y-83920000D01*
X109370000Y-91600000D02*
X112030000Y-91600000D01*
X110700000Y-81320000D02*
X112030000Y-81320000D01*
X112030000Y-81320000D02*
X112030000Y-82650000D01*
X112030000Y-83920000D02*
X112030000Y-91600000D01*
%TO.C,U2*%
X143060000Y-62190000D02*
X143060000Y-80090000D01*
X143060000Y-80090000D02*
X147560000Y-80090000D01*
X144310000Y-62190000D02*
X143060000Y-62190000D01*
X147560000Y-62190000D02*
X146310000Y-62190000D01*
X147560000Y-80090000D02*
X147560000Y-62190000D01*
X146310000Y-62190000D02*
G75*
G02*
X144310000Y-62190000I-1000000J0D01*
G01*
%TO.C,U8*%
X192730000Y-62100000D02*
X192730000Y-63350000D01*
X192730000Y-65350000D02*
X192730000Y-66600000D01*
X192730000Y-66600000D02*
X213170000Y-66600000D01*
X213170000Y-62100000D02*
X192730000Y-62100000D01*
X213170000Y-66600000D02*
X213170000Y-62100000D01*
X192730000Y-63350000D02*
G75*
G02*
X192730000Y-65350000I0J-1000000D01*
G01*
%TO.C,C5*%
X130850000Y-93820000D02*
X136090000Y-93820000D01*
X130850000Y-96560000D02*
X130850000Y-93820000D01*
X136090000Y-93820000D02*
X136090000Y-96560000D01*
X136090000Y-96560000D02*
X130850000Y-96560000D01*
%TO.C,C4*%
X154480000Y-98780000D02*
X159720000Y-98780000D01*
X154480000Y-101520000D02*
X154480000Y-98780000D01*
X159720000Y-98780000D02*
X159720000Y-101520000D01*
X159720000Y-101520000D02*
X154480000Y-101520000D01*
%TD*%
M02*
