M48
; DRILL file {KiCad 9.0.7} date 2026-02-10T19:45:03+0530
; FORMAT={-:-/ absolute / metric / decimal}
; #@! TF.CreationDate,2026-02-10T19:45:03+05:30
; #@! TF.GenerationSoftware,Kicad,Pcbnew,9.0.7
; #@! TF.FileFunction,Plated,1,2,PTH
FMAT,2
METRIC
; #@! TA.AperFunction,Plated,PTH,ViaDrill
T1C0.300
; #@! TA.AperFunction,Plated,PTH,ComponentDrill
T2C0.800
; #@! TA.AperFunction,Plated,PTH,ComponentDrill
T3C1.000
%
G90
G05
T1
X112.393Y-60.842
X124.65Y-76.4
X125.21Y-55.14
X128.555Y-90.205
X136.2Y-55.8
X137.696Y-67.654
X139.95Y-87.85
X142.35Y-59.35
X143.666Y-82.628
X144.15Y-57.65
X149.5Y-88.766
X151.518Y-89.137
X153.25Y-67.8
X156.8Y-67.7
X157.65Y-52.4
X159.2Y-50.65
X159.2Y-57.75
X162.0Y-65.08
X162.0Y-117.35
X162.4Y-58.0
X163.3Y-95.7
X168.1Y-119.203
X173.928Y-74.378
X174.799Y-92.049
X175.75Y-56.368
X176.766Y-77.316
X184.3Y-100.85
X185.1Y-69.4
X186.45Y-59.038
X190.55Y-97.084
X190.85Y-100.134
X193.85Y-74.8
X198.0Y-75.0
X198.325Y-55.225
X200.75Y-112.95
X200.848Y-73.5
X204.1Y-90.85
X206.4Y-90.3
X208.8Y-92.0
T2
X121.2Y-63.46
X121.2Y-66.0
X121.2Y-68.54
X121.2Y-71.08
X121.2Y-73.62
X121.2Y-76.16
X121.2Y-78.7
X121.55Y-95.26
X121.55Y-97.8
X121.55Y-100.34
X121.55Y-102.88
X121.55Y-105.42
X121.55Y-107.96
X121.55Y-110.5
X121.55Y-113.04
X128.82Y-63.46
X128.82Y-66.0
X128.82Y-68.54
X128.82Y-71.08
X128.82Y-73.62
X128.82Y-76.16
X128.82Y-78.7
X128.85Y-57.85
X128.85Y-60.35
X129.17Y-95.26
X129.17Y-97.8
X129.17Y-100.34
X129.17Y-102.88
X129.17Y-105.42
X129.17Y-107.96
X129.17Y-110.5
X129.17Y-113.04
X132.22Y-95.19
X134.72Y-95.19
X141.5Y-63.52
X141.5Y-66.06
X141.5Y-68.6
X141.5Y-71.14
X141.5Y-73.68
X141.5Y-76.22
X141.5Y-78.76
X145.1Y-100.11
X145.1Y-102.65
X145.1Y-105.19
X145.1Y-107.73
X145.1Y-110.27
X145.1Y-112.81
X145.1Y-115.35
X149.12Y-63.52
X149.12Y-66.06
X149.12Y-68.6
X149.12Y-71.14
X149.12Y-73.68
X149.12Y-76.22
X149.12Y-78.76
X152.25Y-63.52
X152.72Y-100.11
X152.72Y-102.65
X152.72Y-105.19
X152.72Y-107.73
X152.72Y-110.27
X152.72Y-112.81
X152.72Y-115.35
X154.75Y-63.52
X155.85Y-100.15
X158.35Y-100.15
X160.45Y-81.85
X162.95Y-81.85
X166.04Y-81.75
X166.04Y-89.37
X166.83Y-56.79
X166.83Y-59.29
X166.83Y-62.29
X166.83Y-69.91
X168.58Y-81.75
X168.58Y-89.37
X169.37Y-62.29
X169.37Y-69.91
X171.12Y-81.75
X171.12Y-89.37
X171.91Y-62.29
X171.91Y-69.91
X172.9Y-100.07
X172.9Y-102.61
X172.9Y-105.15
X172.9Y-107.69
X172.9Y-110.23
X172.9Y-112.77
X172.9Y-115.31
X172.9Y-117.85
X173.66Y-81.75
X173.66Y-89.37
X174.45Y-62.29
X174.45Y-69.91
X176.2Y-81.75
X176.2Y-89.37
X176.99Y-62.29
X176.99Y-69.91
X178.74Y-81.75
X178.74Y-89.37
X179.53Y-62.29
X179.53Y-69.91
X180.52Y-100.07
X180.52Y-102.61
X180.52Y-105.15
X180.52Y-107.69
X180.52Y-110.23
X180.52Y-112.77
X180.52Y-115.31
X180.52Y-117.85
X181.28Y-81.75
X181.28Y-89.37
X182.07Y-62.29
X182.07Y-69.91
X183.5Y-107.56
X186.0Y-107.56
X194.06Y-60.54
X194.06Y-68.16
X194.1Y-54.99
X194.1Y-57.49
X194.56Y-79.34
X194.56Y-86.96
X195.2Y-99.65
X195.2Y-107.27
X196.6Y-60.54
X196.6Y-68.16
X197.1Y-79.34
X197.1Y-86.96
X197.74Y-99.65
X197.74Y-107.27
X199.14Y-60.54
X199.14Y-68.16
X199.64Y-79.34
X199.64Y-86.96
X200.28Y-99.65
X200.28Y-107.27
X201.68Y-60.54
X201.68Y-68.16
X202.18Y-79.34
X202.18Y-86.96
X202.82Y-99.65
X202.82Y-107.27
X204.22Y-60.54
X204.22Y-68.16
X204.72Y-79.34
X204.72Y-86.96
X205.28Y-110.22
X205.28Y-112.72
X205.36Y-99.65
X205.36Y-107.27
X206.76Y-60.54
X206.76Y-68.16
X207.26Y-79.34
X207.26Y-86.96
X207.9Y-99.65
X207.9Y-107.27
X209.3Y-60.54
X209.3Y-68.16
X209.8Y-79.34
X209.8Y-86.96
X210.44Y-99.65
X210.44Y-107.27
X211.84Y-60.54
X211.84Y-68.16
X212.34Y-79.34
X212.34Y-86.96
X212.35Y-90.11
X212.35Y-92.61
X212.98Y-99.65
X212.98Y-107.27
T3
X110.3Y-102.14
X110.3Y-104.68
X110.3Y-107.22
X110.7Y-82.65
X110.7Y-85.19
X110.7Y-87.73
X110.7Y-90.27
X111.075Y-63.53
X111.075Y-66.07
X111.075Y-68.61
X111.075Y-71.15
X118.62Y-52.65
X121.16Y-52.65
X123.7Y-52.65
X126.24Y-52.65
X135.9Y-124.65
X138.44Y-124.65
X144.95Y-52.425
X147.49Y-52.425
X150.03Y-52.425
X152.57Y-52.425
X173.7Y-52.325
X176.24Y-52.325
X178.78Y-52.325
X181.32Y-52.325
X201.25Y-121.11
X201.25Y-123.65
X201.25Y-126.19
X201.25Y-128.73
X213.5Y-120.81
X213.5Y-123.35
X213.5Y-125.89
X213.5Y-128.43
X223.4Y-61.13
X223.4Y-63.67
X223.4Y-66.21
X223.4Y-68.75
X223.425Y-78.9
X223.425Y-81.44
X223.425Y-83.98
X223.425Y-86.52
M30
